<svg width="555" height="555" viewBox="0 0 555 555" fill="none" xmlns="http://www.w3.org/2000/svg"><g clip-path="url(#clip0)"><path fill-rule="evenodd" clip-rule="evenodd" d="M432.246 129.021l1.502-1.11.392-.391-.065-.131 1.632-1.567-1.763-1.894s1.371-3.199 2.22-4.962c.849-1.763 5.093-9.337 5.093-9.337s.392 0 .718.326l1.763-.783-.13-.131.587-.522-1.306-1.437s5.746-7.77 7.77-10.055c3.461-3.918 12.276-13.646 21.482-23.506 0 0 1.437-1.763 3.134-1.567l1.763-1.632-.065-.392.718-.718.066.13.587-.522-.065-.13.13-.131-.13-.13.261-.262-.196-.261s.718-.849-.065-1.959l.653-.588-.261-.26 2.22-2.09-.066-.261 3.004-3.07-.065-.064-3.2 2.807-.261-.065-2.22 2.09-.261-.262-.653.588c-1.11-.849-1.959-.196-1.959-.196l-.196-.261-.261.261-.131-.13-.13.13-.066-.13-.587.522.065.13-.783.719-.327-.131-1.763 1.632c.066 1.698-1.763 3.004-1.763 3.004-10.381 8.619-20.567 16.846-24.681 20.11-2.416 1.894-10.512 7.183-10.512 7.183l-1.306-1.437-.588.523-.13-.13-.849 1.697c.261.26.261.718.261.718s-7.77 3.787-9.598 4.505c-1.829.719-5.093 1.959-5.093 1.959l-1.763-1.893-1.633 1.567-.065-.131-.392.392-1.175 1.436-17.629 2.677 5.354 6.987c10.382-6.138 17.499 1.175 19.98 3.852 2.481 2.677 9.01 9.729 3.069 19.523v.457l6.203 3.591.065-.065c.849-4.113 3.46-14.822 3.46-14.822zm17.303-38l.98 1.044-10.512 12.406-3.461-3.657 12.993-9.794zm-28.011 19.783c7.574-4.244 11.1-6.856 11.1-6.856l4.048 4.244s-2.807 3.33-7.508 10.709l-7.64-8.097z" fill="url(#paint0_linear)"/><path d="M490.033 291.342c-2.024-3.134.065-20.763 1.371-30.492.326-2.22.718-4.375 1.24-6.529 2.286-9.468 6.791-26.64 9.86-28.86l-8.619 1.632-.457 2.481-1.502-.261-1.436 7.444-4.049-.784.262-1.371-1.698-.327.784-4.178-3.461-.653-1.045 5.55-36.434-6.856-.849 4.57 36.434 6.856-5.745 30.558-36.565-6.856-.849 4.571 36.434 6.855-1.045 5.55 3.461.653.784-4.179 1.697.327.261-1.371 4.049.783-1.437 7.444 1.502.261-.457 2.481 7.509 4.701zm-10.317-20.241l.261-1.371-1.697-.326 5.223-27.816 1.698.327.261-1.371 4.048.783-5.746 30.558-4.048-.784z" fill="url(#paint1_linear)"/><path d="M176.882 61.442l-1.175-1.11a.495.495 0 01-.131-.327l-.065-1.044c0-.196-.131-.327-.261-.457l-.523-.262c-.065-.065-.196-.065-.326-.065l-4.571.718a.572.572 0 00-.457.588l.196 2.677c0 .327-.261.588-.588.522-1.24-.196-3.852-.783-4.57-1.37-.784-.719-2.416-2.025-2.938-2.482-.131-.065-.196-.13-.327-.13l-3.069.13-5.289-6.66.327-.261-.457-.98.457-2.611c.13-.588-.653-.85-.98-.392l-.979 1.698h-.522c.065 0 0 0 0 0l-.588-2.09c-.131-.587-.979-.457-1.045.066l-.13 1.762c0 .196-.196.392-.392.457-.131.066-.261.066-.392.131a.507.507 0 01-.522-.13l-1.045-1.045c-.392-.392-1.11.065-.849.587l.653 1.372c.066.195.066.391-.065.522 0 .065-.065.065-.065.13-.131.196-.327.262-.523.196l-1.632-.391c-.588-.13-.914.587-.392.914l1.633 1.11c0 .065-.196.653-.196.653l-3.591.783c-.196.066-.392-.065-.523-.196l-.522-.718-.065-.065-5.355-5.028-.065-.065-2.155-3.004-.13-.196s-.784-.195-1.437-.26c-.13 0-.261-.131-.326-.197l-.457-.652.587-.392-1.044-1.437.261-.196-.522-1.305c-.131-.327-.523-.392-.784-.196l-.065.065c-.261.196-.588.13-.718-.13l-.392-.523c-.066-.13-.066-.261-.066-.392.196-.849-.261-1.893-.587-2.481l-.392-.588c-1.306-1.632-3.852-2.024-5.289-2.154-.457 0-.718.457-.457.849l2.677 3.721-1.436-.98c1.175 4.18 3.526 3.2 3.526 3.2l.522.718c.196.262.131.588-.131.719a.558.558 0 00-.065.849l1.045.914.261-.196 1.045 1.436.587-.392.392.523c.196.261.131.587-.13.718l-.653.457c-.196.13-.262.392-.131.653 0 0 0 .065.065.065a.36.36 0 00.327.196c.065 0 .196 0 .261-.065.065 0 .065 0 .131-.065l.13-.066a.403.403 0 00-.065.457v.066s0 .065.065.065c.196.261.457.261.718.13l.262-.195a.507.507 0 00-.131.522v.065s0 .066.065.066c.066.065.131.13.261.196.131.065.327 0 .457-.066l.196-.13c-.196.13-.261.326-.196.522v.065s0 .066.066.066c.196.26.457.26.718.13l.326-.196.327.457.588.784.326.457c.196.326.588.392.914.326l3.983 5.681c.065.065.131.13.261.196l1.11.326a.89.89 0 01.261.196l1.241 1.763s0 .066.065.261c.196 1.24 1.11 6.79 3.069 7.052h.131l1.567-.261.587 1.11c.066.13.262.261.458.261l.848.065a.44.44 0 01.392.262l1.11 1.893c.131.196.261.261.457.261h.327c.261 0 .457.13.522.392l.588 1.763c.065.13.13.261.326.326l2.351.98a.67.67 0 01.326.392l1.11 5.42a.667.667 0 00.327.39l2.611.915c.131.065.262.13.327.261l2.22 4.31c0 .065.065.13.065.13l.131.653c0 .196.196.392.392.457l.652.196c.196.065.327.196.327.326l3.265 9.338c0 .065.065.13.13.195l4.179 4.049c.065.065.131.13.131.196l1.11 3.134a.526.526 0 01-.196.587l-2.612 1.894a.532.532 0 00-.131.718l12.602 17.629a.53.53 0 00.718.131l23.441-16.781a.532.532 0 00.131-.718l-12.602-17.63a.531.531 0 00-.718-.13l-2.351 1.698c-.261.196-.588.13-.718-.13l-2.743-3.853c-.065-.13-.13-.261-.065-.457l.457-1.633a.51.51 0 00-.13-.522l-1.829-2.024c-.065-.065-.13-.13-.13-.261l-.392-1.763c0-.13-.065-.196-.131-.261l-9.337-9.076c-.326-.327-.13-.849.327-.914l.522-.066c.131 0 .261-.065.392-.195l.588-.719a.5.5 0 00.13-.326l.065-3.395c0-.131.066-.196.131-.327.261-.326.784-1.11.784-1.502-.066-.522 0-2.938 0-2.938l-.588-.065zm-34.41-6.203l2.742.392c.131 0 .196.065.261.13l.915.914.326-.26 1.567 2.48c.261.392-.13.914-.588.784l-1.305-.327c-.131-.065-.262-.13-.327-.26l-.392-.654c-.065-.065-.065-.13-.13-.13l-1.306-1.045c-.065-.065-.196-.065-.261-.13l-1.11-.131c-.131 0-.261-.066-.392-.196l-.588-.849c-.196-.261.131-.783.588-.718z" fill="url(#paint2_linear)"/><path fill-rule="evenodd" clip-rule="evenodd" d="M431.138 128.956l1.501-1.11.392-.392-.065-.13 1.632-1.568-1.763-1.893s1.371-3.199 2.22-4.962c.849-1.763 5.093-9.337 5.093-9.337s.392 0 .719.326l1.762-.784-.13-.13.587-.522-1.305-1.437s5.746-7.77 7.77-10.055c3.46-3.918 12.275-13.581 21.481-23.44 0 0 1.437-1.764 3.135-1.568l1.762-1.632-.065-.392.718-.718.066.13.587-.522-.065-.13.131-.131-.131-.13.261-.262-.196-.261s.719-.849-.065-1.959l.653-.588-.261-.26 2.22-2.09-.065-.261 3.003-3.07-.065-.064-3.2 2.807-.261-.065-2.22 2.09-.261-.262-.653.588c-1.11-.85-1.959-.196-1.959-.196l-.196-.261-.261.26-.13-.13-.131.13-.065-.13-.588.523.065.13-.783.719-.327-.131-1.763 1.632c.066 1.698-1.763 3.004-1.763 3.004-10.381 8.619-20.567 16.846-24.681 20.045-2.416 1.894-10.512 7.182-10.512 7.182l-1.306-1.436-.588.522-.13-.13-.849 1.697c.261.261.261.719.261.719s-7.77 3.787-9.598 4.505c-1.828.718-5.093 1.959-5.093 1.959l-1.763-1.829-1.632 1.568-.066-.131-.391.392-1.176 1.436-17.629 2.677 5.354 6.987c10.382-6.138 17.434 1.175 19.98 3.852 2.481 2.677 9.011 9.729 3.069 19.523v.392l6.203 3.591.065-.065c.914-4.179 3.461-14.822 3.461-14.822zm17.303-38.067l.979 1.045-10.512 12.406-3.461-3.656 12.994-9.795zm-28.012 19.785c7.575-4.245 11.1-6.856 11.1-6.856l3.983 4.244s-2.807 3.33-7.508 10.643l-7.575-8.031z" fill="url(#paint3_linear)"/><path d="M488.923 291.081c-2.024-3.134.065-20.763 1.371-30.427.326-2.22.718-4.375 1.24-6.529 2.286-9.468 6.791-26.64 9.795-28.86l-8.619 1.632-.457 2.481-1.502-.261-1.437 7.444-3.982-.784.261-1.371-1.698-.327.784-4.178-3.461-.653-1.045 5.55-36.434-6.856-.849 4.57 36.434 6.856-5.745 30.493-36.435-6.856-.848 4.57 36.434 6.856-1.045 5.55 3.461.653.783-4.179 1.698.327.261-1.371 3.983.783-1.437 7.444 1.502.261-.457 2.481 7.444 4.701zm-10.317-20.176l.261-1.371-1.697-.326 5.223-27.816 1.698.327.261-1.371 3.983.783-5.746 30.492-3.983-.718z" fill="url(#paint4_linear)"/><path d="M176.098 61.377l-1.175-1.11a.5.5 0 01-.13-.327l-.066-1.045c0-.196-.13-.326-.261-.457l-.522-.26c-.066-.066-.196-.066-.327-.066l-4.57.718a.572.572 0 00-.457.588l.196 2.677c0 .326-.262.587-.588.522-1.241-.196-3.852-.783-4.571-1.371-.783-.718-2.416-2.024-2.938-2.481-.131-.066-.196-.13-.326-.13l-3.069.13-5.158-6.66.326-.261-.457-.98.457-2.612c.131-.587-.653-.848-.979-.391l-.98 1.697h-.522c.065 0 0 0 0 0l-.588-2.09c-.13-.587-.979-.456-1.045.066l-.13 1.763c0 .196-.196.392-.392.457-.13.066-.261.066-.392.13a.508.508 0 01-.522-.13l-1.045-1.044c-.391-.392-1.11.065-.849.587l.653 1.371c.066.196.066.392-.065.523 0 .065-.065.065-.065.13-.131.196-.327.261-.523.196l-1.632-.392c-.588-.13-.914.588-.392.914l1.633 1.11c0 .066-.196.653-.196.653l-3.591.784c-.196.065-.392-.065-.523-.196l-.522-.718-.065-.066-5.354-5.027-.066-.065-2.154-3.004-.131-.196s-.784-.196-1.437-.261c-.13 0-.261-.13-.326-.196l-.457-.653.588-.392-1.045-1.436.261-.196-.522-1.306c-.131-.326-.523-.392-.784-.196l-.065.066c-.261.196-.588.13-.718-.131l-.392-.522c-.065-.131-.065-.261-.065-.392.195-.849-.262-1.894-.588-2.481l-.392-.588c-1.306-1.632-3.852-2.024-5.289-2.155-.457 0-.718.457-.457.85l2.677 3.72-1.436-.979c1.175 4.18 3.526 3.2 3.526 3.2l.522.718c.196.261.131.588-.13.718a.557.557 0 00-.066.85l1.045.913.261-.196 1.045 1.437.587-.392.392.523c.196.26.131.587-.13.718l-.653.457c-.196.13-.261.392-.131.653 0 0 0 .065.065.065a.36.36 0 00.327.196c.065 0 .196 0 .261-.065.065 0 .065 0 .131-.066l.13-.065a.404.404 0 00-.065.457v.065s0 .066.065.066c.196.26.457.26.718.13l.262-.196c-.131.131-.196.327-.131.523v.065s0 .065.065.065c.066.066.131.13.262.196.13.066.326 0 .457-.065l.195-.13c-.195.13-.261.326-.195.522v.065s0 .065.065.065c.196.261.457.261.718.13l.327-.195.326.457.588.784.326.457c.196.326.588.391.914.326l3.983 5.68a.92.92 0 00.261.197l1.11.326c.131.065.196.13.262.196l1.24 1.763s0 .065.065.261c.196 1.24 1.11 6.79 3.004 7.052h.131l1.567-.261.587 1.11a.55.55 0 00.457.26l.849.066a.44.44 0 01.392.261l1.11 1.894c.131.196.261.261.457.261h.326c.262 0 .458.13.523.392l.522 1.763c.065.13.131.26.327.326l2.35.98a.67.67 0 01.327.391l1.11 5.42a.67.67 0 00.326.391l2.612.915c.131.065.261.13.261.26l2.22 4.31c0 .066.065.13.065.13l.131.654c0 .196.196.391.392.457l.653.196c.196.065.326.196.326.326l3.265 9.337c0 .066.065.13.13.196l4.179 4.048c.066.066.131.131.131.196l1.11 3.134a.528.528 0 01-.196.588l-2.612 1.828a.53.53 0 00-.13.718l12.601 17.565a.532.532 0 00.719.13l23.44-16.78a.533.533 0 00.131-.719l-12.602-17.564a.531.531 0 00-.718-.13l-2.351 1.697c-.261.196-.587.13-.718-.13l-2.742-3.853c-.066-.13-.131-.26-.066-.457l.457-1.632a.507.507 0 00-.13-.522l-1.828-2.025c-.066-.065-.131-.13-.131-.26l-.392-1.764c0-.13-.065-.195-.13-.26l-9.664-9.011c-.326-.327-.13-.85.327-.915l.522-.065c.131 0 .261-.065.392-.196l.587-.718a.495.495 0 00.131-.326l.065-3.396c0-.13.065-.196.131-.326.261-.327.783-1.11.783-1.502-.065-.522 0-2.938 0-2.938l-.196-.066zm-34.41-6.203l2.743.391c.13 0 .196.066.261.13l.914.915.327-.261 1.567 2.481c.261.392-.131.914-.588.784l-1.306-.327c-.13-.065-.261-.13-.326-.261l-.392-.653c-.065-.065-.065-.13-.131-.13l-1.306-1.045c-.065-.066-.195-.066-.261-.13l-1.11-.131c-.13 0-.261-.066-.392-.196l-.587-.85c-.196-.26.13-.783.587-.717z" fill="url(#paint5_linear)"/><path opacity=".44" d="M414.447 353.004c72.033-72.034 72.033-188.824 0-260.858-72.034-72.034-188.824-72.034-260.858 0-72.034 72.034-72.034 188.824 0 260.858 72.034 72.033 188.824 72.033 260.858 0z" fill="#E6EEFF"/><path d="M284.029 389.088c91.956 0 166.5-74.545 166.5-166.5 0-91.956-74.544-166.5-166.5-166.5-91.955 0-166.5 74.544-166.5 166.5 0 91.955 74.545 166.5 166.5 166.5z" fill="url(#paint6_radial)"/><path d="M205.154 176.163c-2.024-3.525-11.035-6.529-11.035-6.529s.98-8.553-3.003-8.553-17.564 3.003-14.038-2.025c3.526-5.027 6.529-2.024 8.553-9.533 2.024-7.508 7.509-3.46 1.502-9.206-6.007-5.811-7.052-6.791-12.014-12.341-4.963-5.55-6.007-16.519-14.561-16.519 0 0-.326.131-.914.457-26.248 29.448-42.115 68.167-42.115 110.674 0 11.165 1.11 22.069 3.2 32.647 2.677.718 8.815 1.958 10.773-.392 2.482-3.004-2.481-11.557.523-11.557 3.003 0 5.484 2.612 11.034 3.591 5.485.914 16.063-5.093 17.565-10.121 1.501-5.027-3.983-6.529 7.051-8.031 11.035-1.502 14.561 2.481 19.589-3.003 5.027-5.485 3.982-18.021 11.034-21.547 7.052-3.526 18.544-9.533 18.544-14.561-.131-4.962-9.664-9.99-11.688-13.451z" fill="url(#paint7_radial)"/><path d="M213.708 73.325c.849-.392 2.024-1.763 3.265-3.2a168.25 168.25 0 00-45.967 30.167c2.35.849 9.141.065 14.626.065 8.031 0 15.017 2.481 18.543 11.035 3.526 8.553 12.537 1.436 12.537 1.436s.522-13.516 3.983-14.495c3.526-.98 14.56 10.055 17.041 13.059 2.482 3.003 9.011.522 10.513 0 1.502-.523 3.526-13.06 5.485-17.564 2.024-4.506-6.008-1.502-8.554-3.983-2.547-2.481 5.485-7.51 5.028-11.557-.457-4.049-2.025-3.004-7.052-2.025-5.028.98-9.533 2.482-18.021 2.025-8.554-.523-4.506.979-13.516 3.526-8.945 2.546.065-7.444 2.089-8.489z" fill="url(#paint8_radial)"/><path d="M400.841 104.013c-3.134.98-6.137 2.416-9.141-.587-4.505-4.505-11.035-8.554-6.007-8.031 1.632.13 3.983.391 6.333.457-9.467-8.097-19.849-15.083-31.014-20.96-2.677-.457-5.616-.326-8.946.914-9.533 3.526-26.574 13.19-26.574 14.887 0 1.698.522 9.207 5.027 10.709 4.506 1.501 1.502 9.533 9.011 7.509 7.509-2.025 12.536-3.004 12.536-7.052 0-3.983-6.529-8.358.98-11.166 7.509-2.873 17.042-.326 14.56 2.678-2.481 3.003-14.038 6.007-8.031 10.055 6.007 3.983 17.042 5.484 16.063 8.031-.98 2.546-5.028-1.632-15.54 4.179-10.513 5.811-26.053 5.811-28.599 3.33-2.481-2.481.979-10.056-4.506-7.509-5.484 2.481-5.484 7.052-13.058 8.031-7.509.98-19.066-2.024-18.022 2.024.98 3.983 0 14.561-2.481 14.561s-14.56-4.505-19.066-.98c-4.505 3.526-14.038 15.018.523 15.018 14.56 0 18.543-1.502 27.554-6.007 9.01-4.505 17.042-7.509 18.543-3.983 1.502 3.526 4.506 9.011 6.53 14.561 2.024 5.484 6.333 11.557 7.966 7.508 1.567-3.982-5.942-13.058-3.461-18.021 2.481-5.027 7.509 0 8.554 3.526 1.044 3.526-3.526 16.063 3.983 17.042 7.508.979 6.007-3.983 11.557-2.481 5.484 1.502 9.533 3.003 12.014-3.526s9.533-9.533 13.516-8.554c3.983.98 8.031 2.024 8.553 10.056.523 8.031-3.003 14.56-7.509 13.058-4.505-1.501-21.547-8.553-24.093-3.982-2.481 4.505-8.031 3.525-.98 9.532 7.052 6.008 13.516 5.485 17.565 7.509 3.982 2.024 2.024 4.506-2.025 8.554-3.983 3.983-6.529 8.031-14.038 2.481-7.509-5.485-7.509-16.193-17.564-13.385-10.055 2.873-14.038 9.337-17.564 6.333-3.526-3.003-10.055-7.052-10.512-12.536-.523-5.485 3.983-13.059-.523-15.018-4.505-2.024-11.034-.979-21.547-.522-10.512.522-14.038-3.526-19.588-2.481-5.485.979-17.76 12.536-17.76 12.536s-8.815 4.505-13.385 6.007c-4.506 1.502-9.011 6.007-10.056 12.537-.979 6.529-14.038 16.519-10.512 21.09 3.526 4.505 9.011 11.557 9.533 22.069.522 10.512 18.674 10.643 24.42 13.124 5.681 2.416 2.677 4.44 10.186 2.416 7.509-2.024 10.512-.392 12.536.849 2.024 1.175 0-10.708 5.028 6.007s-6.007 9.663-3.004 19.719c3.004 10.055 10.513 13.516 10.056 17.564-.523 3.983 0 3.526-7.052 12.536-7.052 9.011-9.011 16.52-7.052 28.077 2.024 11.557-1.502 6.79-2.024 15.409s5.485 13.19 3.526 20.176c-2.024 7.052 6.529 7.052 12.536 8.554 6.007 1.501-.979 5.484 9.533 3.003 10.513-2.481 12.537-7.509 16.52-10.055 3.983-2.481.522-7.509 4.505-10.513 3.983-3.003 8.031-.522 11.035-5.484 3.003-5.028-6.007-6.007 3.983-9.533 10.055-3.526 15.54-2.481 18.543-11.557 3.004-9.011-2.024-22.07 6.53-26.575 8.553-4.505 37.087-20.045 40.613-27.554 3.525-7.509-6.53-9.011-13.059-11.035-6.53-2.024-8.554-3.852-10.513-12.732-2.024-8.88-6.529-21.417-6.529-21.417s1.502-12.014 0-13.515c-1.502-1.502.979-16.52 4.505-13.059 3.526 3.526 4.506 6.529 5.028 13.516.522 7.051.522 13.515 2.481 16.062 2.024 2.481 3.004 5.615 3.526 9.076.522 3.46 4.505 9.272 4.505 9.272s3.526 6.072 15.018 2.611c11.557-3.46 22.592-10.969 22.069-14.952-.522-3.983-7.508-2.481-12.014-9.533-4.505-7.052-5.027-21.547-5.027-21.547s7.051-4.505 8.031 2.481c.979 7.052 1.502 8.031 6.529 12.014 5.028 3.983-5.027 3.983 7.509 7.052 9.794 2.351 14.691 6.203 17.042 7.77.718-6.399 1.175-12.928 1.175-19.523v-1.959c-1.11-14.364-3.526-33.169-7.77-48.448-8.096-26.248-22.657-49.558-41.723-68.298z" fill="url(#paint9_radial)"/><path d="M369.63 327.058c-3.983 8.554-7.052 12.537-7.052 18.021 0 5.485-10.055 10.056-3.983 12.537 6.007 2.481 18.021-3.983 22.592-13.516 4.505-9.533 14.038-22.069 9.011-27.554 0 0-16.585 2.024-20.568 10.512z" fill="url(#paint10_radial)"/><path d="M285.139 13.908c-39.045 0-74.631 20.502-101.467 54.063-9.402 12.733-17.694 26.77-24.681 41.658a7.26 7.26 0 011.763.196c26.575-56.153 72.411-93.24 124.385-93.24 82.01 0 148.675 92.391 148.675 205.937 0 113.547-66.665 205.938-148.675 205.938-50.733 0-95.525-35.324-122.426-89.192a109.496 109.496 0 01-3.395-3.069c10.773 22.853 24.616 42.899 40.743 58.7 24.224 22.788 53.541 36.173 85.078 36.173 83.446 0 151.287-93.567 151.287-208.55 0-114.983-67.841-208.614-151.287-208.614z" fill="#E6EEFF"/><path d="M497.477 146.846c-9.337-40.743-53.737-66.012-119.619-72.541.979.391 1.763.848 2.285 1.24 61.964 7.64 107.278 33.431 116.158 72.216 14.43 63.204-73.325 137.378-195.621 165.324-59.417 13.581-117.921 14.365-164.933 2.155-46.62-12.145-76.198-35.585-83.119-66.012-6.921-30.493 9.468-64.446 46.228-95.656 6.791-5.746 14.104-11.231 21.874-16.52-50.146 33.3-78.223 73.587-69.473 111.784 2.938 12.798 9.99 25.334 20.372 36.956 14.821 13.908 36.303 24.812 63.531 31.929 22.396 5.811 47.338 8.684 73.717 8.684 29.513 0 60.854-3.591 92.391-10.839 98.398-22.526 174.596-74.892 194.25-127.976 3.983-14.495 4.766-28.338 1.959-40.744z" fill="#EDF3FF"/><path d="M483.961 288.665c2.938-24.224-.849-50.603-11.427-77.439-18.413-46.946-55.369-89.91-103.948-121.055-48.579-31.145-103.099-46.75-153.441-43.878-28.86 1.633-54.325 9.207-75.154 22.005-15.54 11.23-28.403 24.289-37.609 38.654-29.513 46.032-22.526 107.343 12.275 162.386-.849-2.35-1.436-4.309-1.763-5.942-5.941-10.055-11.1-20.437-15.213-30.949-18.152-46.294-15.997-90.824 6.203-125.495 22.2-34.606 61.768-55.24 111.392-58.047 3.852-.196 7.77-.326 11.622-.326 46.489 0 95.786 15.344 140.186 43.812 48.187 30.819 84.752 73.391 103.034 119.815 18.152 46.293 15.998 90.824-6.202 125.495-28.142 43.878-83.316 63.335-144.692 57.198-1.633.457-3.722.783-6.399.979 64.119 8.293 122.361-10.969 151.743-56.806 9.142-14.43 15.671-31.602 19.393-50.407z" fill="#EDF3FF"/><path d="M333 47.404c13.09 0 23.702-10.612 23.702-23.702C356.702 10.612 346.09 0 333 0c-13.09 0-23.701 10.612-23.701 23.702 0 13.09 10.611 23.701 23.701 23.701z" fill="#fff"/><path d="M333 37.544c7.645 0 13.842-6.197 13.842-13.842 0-7.645-6.197-13.843-13.842-13.843-7.645 0-13.843 6.198-13.843 13.843S325.355 37.544 333 37.544z" fill="#000"/><path d="M333 37.544c7.645 0 13.842-6.197 13.842-13.842 0-7.645-6.197-13.843-13.842-13.843-7.645 0-13.843 6.198-13.843 13.843S325.355 37.544 333 37.544z" fill="#000"/><path fill-rule="evenodd" clip-rule="evenodd" d="M333 9.925c-7.64 0-13.843 6.203-13.843 13.842 0 7.64 6.203 13.842 13.843 13.842 7.639 0 13.842-6.203 13.842-13.842 0-7.64-6.203-13.842-13.842-13.842z" fill="#ED2939"/><path d="M351.544 26.052h-37.153v2.351h37.153v-2.35zm-34.802 11.623h32.517a2.34 2.34 0 002.35-2.35h-37.152c-.065 1.305.98 2.35 2.285 2.35zm34.802-6.987h-37.153v2.35h37.153v-2.35zm0-9.272h-37.153v2.351h37.153v-2.35zm0-9.271h-37.153v2.35h37.153v-2.35zm0 4.635h-37.153v2.351h37.153v-2.35z" fill="#fff"/><path fill-rule="evenodd" clip-rule="evenodd" d="M335.286 10.12a13.706 13.706 0 00-2.351-.195c-7.639 0-13.842 6.203-13.842 13.842 0 .784.065 1.567.196 2.35h15.931V10.122h.066z" fill="#0066B3"/><path fill-rule="evenodd" clip-rule="evenodd" d="M317.917 14.43a1.171 1.171 0 01-1.176-1.175 1.17 1.17 0 011.176-1.176 1.17 1.17 0 011.175 1.176c-.065.653-.588 1.175-1.175 1.175zm4.635 0a1.17 1.17 0 01-1.175-1.175 1.17 1.17 0 011.175-1.176 1.17 1.17 0 011.176 1.176 1.17 1.17 0 01-1.176 1.175zm4.636 0a1.17 1.17 0 01-1.175-1.175 1.17 1.17 0 011.175-1.176 1.17 1.17 0 011.176 1.176 1.17 1.17 0 01-1.176 1.175zm4.636 0a1.17 1.17 0 01-1.175-1.175 1.17 1.17 0 011.175-1.176A1.17 1.17 0 01333 13.255a1.17 1.17 0 01-1.176 1.175zm-13.907 9.272a1.17 1.17 0 01-1.176-1.176c0-.652.523-1.175 1.176-1.175a1.17 1.17 0 011.175 1.175c-.065.719-.588 1.176-1.175 1.176zm4.635 0a1.17 1.17 0 01-1.175-1.176 1.17 1.17 0 011.175-1.175c.653 0 1.176.523 1.176 1.175 0 .719-.523 1.176-1.176 1.176zm4.636 0a1.17 1.17 0 01-1.175-1.176 1.17 1.17 0 011.175-1.175c.653 0 1.176.523 1.176 1.175 0 .719-.523 1.176-1.176 1.176zm4.636 0a1.17 1.17 0 01-1.175-1.176 1.17 1.17 0 011.175-1.175c.653 0 1.176.523 1.176 1.175 0 .719-.523 1.176-1.176 1.176zm-11.622-4.636a1.17 1.17 0 01-1.175-1.175 1.17 1.17 0 011.175-1.176 1.17 1.17 0 011.175 1.176 1.17 1.17 0 01-1.175 1.175zm4.636 0a1.17 1.17 0 01-1.176-1.175 1.17 1.17 0 011.176-1.176 1.17 1.17 0 011.175 1.176 1.17 1.17 0 01-1.175 1.175zm4.701 0a1.17 1.17 0 01-1.175-1.175 1.17 1.17 0 011.175-1.176 1.17 1.17 0 011.175 1.176c-.065.653-.587 1.175-1.175 1.175z" fill="#fff"/><path d="M274.431 65.751c7.068 0 12.798-5.73 12.798-12.798 0-7.067-5.73-12.797-12.798-12.797-7.067 0-12.797 5.73-12.797 12.797 0 7.069 5.73 12.798 12.797 12.798z" fill="#fff"/><path fill-rule="evenodd" clip-rule="evenodd" d="M266.922 52.953a7.44 7.44 0 007.444 7.444 7.44 7.44 0 007.443-7.444 7.44 7.44 0 00-7.443-7.443 7.44 7.44 0 00-7.444 7.443z" fill="#D00"/><path fill-rule="evenodd" clip-rule="evenodd" d="M267.38 55.5c1.044 2.873 3.787 4.962 6.986 4.962a7.362 7.362 0 006.986-4.962H267.38z" fill="#FFCE00"/><path fill-rule="evenodd" clip-rule="evenodd" d="M281.417 50.472c-1.045-2.873-3.787-4.962-6.986-4.962a7.365 7.365 0 00-6.987 4.962h13.973z" fill="#000"/><path d="M498.194 187.72c14.785 0 26.771-11.985 26.771-26.77s-11.986-26.771-26.771-26.771-26.77 11.986-26.77 26.771 11.985 26.77 26.77 26.77z" fill="#fff"/><path fill-rule="evenodd" clip-rule="evenodd" d="M513.799 160.95c0-8.619-6.987-15.605-15.605-15.605-8.619 0-15.606 6.986-15.606 15.605s6.987 15.605 15.606 15.605c8.618 0 15.605-6.986 15.605-15.605z" fill="#EAEAEA"/><path d="M498.194 168.72a7.77 7.77 0 100-15.54 7.77 7.77 0 000 15.54z" fill="#BC002D"/><path d="M160.886 344.884c13.378 0 24.224-10.846 24.224-24.225 0-13.378-10.846-24.224-24.224-24.224-13.379 0-24.224 10.846-24.224 24.224 0 13.379 10.845 24.225 24.224 24.225z" fill="#fff"/><path fill-rule="evenodd" clip-rule="evenodd" d="M160.886 306.556c-3.918 0-7.444 1.567-9.99 4.113a14.059 14.059 0 00-4.114 9.99c0 4.375 2.024 8.293 5.159 10.905a14.386 14.386 0 003.46 2.089 13.956 13.956 0 005.485 1.11c1.698 0 3.265-.327 4.766-.849 1.959-.718 3.787-1.828 5.224-3.33a12.592 12.592 0 001.698-2.089c.522-.784.914-1.567 1.305-2.416a13.938 13.938 0 001.11-5.485c0-7.705-6.333-14.038-14.103-14.038z" fill="#009B3A"/><path fill-rule="evenodd" clip-rule="evenodd" d="M174.859 322.422c.065-.587.13-1.175.13-1.763 0-.587-.065-1.175-.13-1.762l-13.973-9.991-13.973 9.991c-.065.587-.131 1.175-.131 1.762 0 .588.066 1.176.131 1.763l13.973 9.99 13.973-9.99z" fill="#FEDF00"/><path d="M160.886 327.711a7.051 7.051 0 100-14.102 7.051 7.051 0 000 14.102z" fill="#002776"/><path fill-rule="evenodd" clip-rule="evenodd" d="M156.642 314.979l11.23 6.464c-.065.784-.326 1.567-.718 2.351l-12.21-7.052c.457-.653 1.045-1.241 1.698-1.763z" fill="#fff"/><path d="M364.929 419.188c9.016 0 16.324-7.308 16.324-16.323 0-9.016-7.308-16.324-16.324-16.324-9.015 0-16.323 7.308-16.323 16.324 0 9.015 7.308 16.323 16.323 16.323z" fill="#fff"/><path d="M374.397 402.865c0-.327 0-.588-.065-.914v-.196a6.93 6.93 0 00-.588-2.286c-.065-.261-.196-.457-.326-.718a9.402 9.402 0 00-1.828-2.612c-.196-.196-.457-.391-.653-.587-.261-.196-.457-.392-.719-.523-.195-.13-.391-.261-.587-.326v16.454c.065-.065.13-.065.196-.131.13-.065.261-.13.326-.195.066-.066.131-.131.196-.131 2.481-1.828 4.048-4.636 4.048-7.835zm-14.234-8.227c-.195.13-.391.196-.587.326-.457.327-.914.718-1.371 1.11l-.066.065a7.602 7.602 0 00-.914 1.11c-.196.262-.392.523-.522.784a9.397 9.397 0 00-1.306 4.832 9.37 9.37 0 003.983 7.704c.065.066.131.131.196.131.196.131.392.261.587.326v-16.388zm6.595 10.773l1.175-3.526-3.003-2.22-3.004 2.22 1.11 3.526h3.722z" fill="#ED2939"/><path d="M471.947 353.241c16.66 0 30.166-13.506 30.166-30.166s-13.506-30.166-30.166-30.166-30.166 13.506-30.166 30.166 13.506 30.166 30.166 30.166z" fill="#fff"/><path fill-rule="evenodd" clip-rule="evenodd" d="M489.511 323.075c0-9.729-7.901-17.564-17.565-17.564-9.728 0-17.564 7.901-17.564 17.564 0 9.729 7.901 17.564 17.564 17.564 9.664 0 17.565-7.9 17.565-17.564z" fill="#273C83"/><path fill-rule="evenodd" clip-rule="evenodd" d="M484.809 311.061l-12.145 7.901-13.058-8.489c-1.763 1.698-3.134 3.788-4.049 6.138l10.382 6.725-10.186 6.595a17.678 17.678 0 004.244 6.007l12.667-8.227 11.819 7.639c1.697-1.762 3.069-3.852 3.917-6.202l-9.01-5.877 9.206-5.942c-.849-2.35-2.154-4.44-3.787-6.268z" fill="#F7F7F7"/><path fill-rule="evenodd" clip-rule="evenodd" d="M486.442 313.085l-13.777 8.945-14.757-9.598a19.947 19.947 0 00-1.567 2.481l13.647 8.88-12.994 8.423c.523.849 1.11 1.633 1.763 2.351l13.973-9.076 12.994 8.423c.587-.784 1.175-1.567 1.632-2.416l-12.014-7.705 12.536-8.161c-.392-.849-.914-1.698-1.436-2.547z" fill="#DC1E35"/><path fill-rule="evenodd" clip-rule="evenodd" d="M477.757 328.886h10.709c.653-1.828 1.044-3.787 1.044-5.876 0-2.09-.391-4.048-1.044-5.877h-10.709v-10.708c-1.828-.653-3.787-1.045-5.876-1.045-2.089 0-4.048.392-5.877 1.045v10.708h-10.708c-.653 1.829-1.045 3.787-1.045 5.877 0 2.089.392 4.048 1.045 5.876h10.708v10.709c1.829.652 3.788 1.044 5.877 1.044s4.048-.392 5.876-1.044v-10.709z" fill="#F7F7F7"/><path fill-rule="evenodd" clip-rule="evenodd" d="M474.885 325.948h14.364c.131-.979.262-1.959.262-2.938 0-.98-.131-1.959-.262-2.938h-14.364v-14.365c-.98-.131-1.959-.261-2.939-.261-.979 0-1.958.13-2.938.261v14.365h-14.364c-.131.979-.262 1.958-.262 2.938 0 .979.131 1.959.262 2.938h14.364v14.365c.98.13 1.959.261 2.938.261.98 0 1.959-.131 2.939-.261v-14.365z" fill="#DC1E35"/><path d="M392.875 129.282c9.917 0 17.956-8.039 17.956-17.956 0-9.916-8.039-17.955-17.956-17.955s-17.956 8.039-17.956 17.955c0 9.917 8.039 17.956 17.956 17.956z" fill="#fff"/><path fill-rule="evenodd" clip-rule="evenodd" d="M382.363 111.327c0 5.811 4.701 10.447 10.447 10.447 5.746 0 10.447-4.702 10.447-10.447 0-5.812-4.701-10.448-10.447-10.448-5.746-.065-10.447 4.636-10.447 10.448z" fill="#EE1D23"/><path fill-rule="evenodd" clip-rule="evenodd" d="M382.363 111.327c0 2.677 1.045 5.158 2.677 6.986h15.606a10.546 10.546 0 002.677-6.986c0-2.677-1.045-5.159-2.677-6.987H385.04a10.549 10.549 0 00-2.677 6.987z" fill="#F7F7F7"/><path fill-rule="evenodd" clip-rule="evenodd" d="M382.363 111.326c0 1.241.196 2.416.588 3.461h19.719c.391-1.11.587-2.285.587-3.461 0-1.24-.196-2.415-.587-3.46h-19.719c-.327 1.045-.588 2.22-.588 3.46z" fill="#241D4F"/><path d="M60.136 224.155c13.378 0 24.224-10.846 24.224-24.224 0-13.379-10.846-24.225-24.224-24.225-13.379 0-24.224 10.846-24.224 24.225 0 13.378 10.845 24.224 24.224 24.224z" fill="#fff"/><path fill-rule="evenodd" clip-rule="evenodd" d="M46.032 199.931c0 7.77 6.334 14.103 14.104 14.103s14.104-6.333 14.104-14.103-6.334-14.104-14.104-14.104-14.104 6.334-14.104 14.104z" fill="#273C83"/><path fill-rule="evenodd" clip-rule="evenodd" d="M46.032 199.931h7.052v-2.351h7.052v-7.052h-7.052v-2.807c-4.179 2.415-7.052 6.986-7.052 12.21z" fill="#F7F7F7"/><path fill-rule="evenodd" clip-rule="evenodd" d="M48.383 192.095v.718h-.457c-.457.719-.783 1.502-1.11 2.351h1.502v4.701h2.35v-4.636h9.403v-2.35h-9.337v-3.461c-.849.784-1.633 1.698-2.35 2.677z" fill="#DC1E35"/><path fill-rule="evenodd" clip-rule="evenodd" d="M68.95 194.054c-.98 0-1.763-.784-1.763-1.763 0-.979.784-1.763 1.763-1.763.98 0 1.763.784 1.763 1.763 0 .979-.783 1.763-1.763 1.763zm-4.113 5.877a2.341 2.341 0 01-2.351-2.351 2.341 2.341 0 012.35-2.351 2.341 2.341 0 012.351 2.351 2.341 2.341 0 01-2.35 2.351zm4.7 7.051a2.34 2.34 0 01-2.35-2.35 2.341 2.341 0 012.35-2.351 2.341 2.341 0 012.351 2.351 2.34 2.34 0 01-2.35 2.35zm3.527-9.402a1.17 1.17 0 01-1.176-1.175c0-.653.523-1.176 1.176-1.176a1.17 1.17 0 011.175 1.176 1.17 1.17 0 01-1.175 1.175zm-22.331 11.753a2.341 2.341 0 01-2.35-2.351 2.34 2.34 0 012.35-2.35 2.34 2.34 0 012.35 2.35 2.341 2.341 0 01-2.35 2.351z" fill="#F7F7F7"/><path d="M105.516 119.488c7.934 0 14.365-6.431 14.365-14.365 0-7.933-6.431-14.364-14.365-14.364-7.933 0-14.365 6.431-14.365 14.364 0 7.934 6.432 14.365 14.365 14.365z" fill="#fff"/><path fill-rule="evenodd" clip-rule="evenodd" d="M105.516 96.766a8.333 8.333 0 00-8.357 8.357 8.332 8.332 0 008.357 8.358 8.333 8.333 0 008.358-8.358c.065-4.635-3.722-8.357-8.358-8.357z" fill="#F7F7F7"/><path fill-rule="evenodd" clip-rule="evenodd" d="M101.338 97.876c-2.482 1.436-4.18 4.179-4.18 7.247 0 3.069 1.698 5.812 4.18 7.248V97.876z" fill="#117C4E"/><path fill-rule="evenodd" clip-rule="evenodd" d="M109.695 97.876v14.495c2.482-1.436 4.179-4.179 4.179-7.248.066-3.068-1.632-5.81-4.179-7.247z" fill="#DF1B33"/><path d="M228.269 44.596c8.186 0 14.822-6.636 14.822-14.822s-6.636-14.822-14.822-14.822-14.822 6.636-14.822 14.822 6.636 14.822 14.822 14.822z" fill="#fff"/><path fill-rule="evenodd" clip-rule="evenodd" d="M236.888 29.775a8.611 8.611 0 00-8.619-8.619 8.61 8.61 0 00-8.619 8.619 8.61 8.61 0 008.619 8.619 8.611 8.611 0 008.619-8.62z" fill="#F7F7F7"/><path fill-rule="evenodd" clip-rule="evenodd" d="M236.43 32.647h-16.258a8.649 8.649 0 008.162 5.746c3.722 0 6.921-2.416 8.096-5.746z" fill="#21468B"/><path fill-rule="evenodd" clip-rule="evenodd" d="M220.107 26.901h16.259a8.65 8.65 0 00-8.162-5.746c-3.722-.065-6.921 2.35-8.097 5.746z" fill="#DE1018"/><path d="M414.684 284.291c7.501 0 13.581-6.081 13.581-13.582 0-7.5-6.08-13.581-13.581-13.581-7.501 0-13.581 6.081-13.581 13.581 0 7.501 6.08 13.582 13.581 13.582z" fill="#fff"/><path fill-rule="evenodd" clip-rule="evenodd" d="M406.784 270.709a7.886 7.886 0 007.9 7.901 7.886 7.886 0 007.901-7.901c0-4.374-3.526-7.9-7.901-7.9a7.886 7.886 0 00-7.9 7.9z" fill="#F7F7F7"/><path fill-rule="evenodd" clip-rule="evenodd" d="M422.128 268.098c-1.11-3.069-3.983-5.289-7.443-5.289-3.461 0-6.334 2.22-7.444 5.289h14.887z" fill="#CE1126"/><path fill-rule="evenodd" clip-rule="evenodd" d="M407.306 273.321c1.11 3.069 3.983 5.289 7.443 5.289 3.461 0 6.334-2.22 7.444-5.289h-14.887z" fill="#000"/><path d="M414.684 273.321a2.612 2.612 0 100-5.224 2.612 2.612 0 000 5.224z" fill="#C09300"/><path d="M414.684 272.015a1.306 1.306 0 100-2.611 1.306 1.306 0 000 2.611z" fill="#F7F7F7"/><path d="M352.785 376.943c101.944 0 184.586-82.642 184.586-184.586 0-101.945-82.642-184.587-184.586-184.587-101.944 0-184.587 82.642-184.587 184.587 0 101.944 82.643 184.586 184.587 184.586z" fill="url(#paint11_radial)"/><path opacity=".5" d="M277.5 465.155c153.259 0 277.5-9.208 277.5-20.567 0-11.36-124.241-20.568-277.5-20.568-153.259 0-277.5 9.208-277.5 20.568 0 11.359 124.241 20.567 277.5 20.567z" fill="url(#paint12_radial)"/><path opacity=".5" d="M287.555 555c108.94 0 197.254-4.911 197.254-10.97 0-6.058-88.314-10.969-197.254-10.969S90.301 537.972 90.301 544.03c0 6.059 88.314 10.97 197.254 10.97z" fill="url(#paint13_radial)"/><path d="M184.456 497.802l-7.313 12.406 13.907 3.983 5.028-8.292-11.622-8.097z" fill="url(#paint14_linear)"/><path d="M324.512 517.456l3.33 11.1 13.646-2.22-3.46-13.647-13.516 4.767z" fill="url(#paint15_linear)"/><path d="M182.301 496.3l40.809-72.345 19.915-89.127 51.582 5.615s-39.894 88.213-45.575 98.986c-5.681 10.774-49.362 69.016-49.362 69.016L182.301 496.3z" fill="url(#paint16_linear)"/><path d="M202.02 543.378l-33.561-26.053c-.457-.326-.523-1.045-.131-1.436l9.533-10.578a1.01 1.01 0 011.306-.196l3.656 3.526a30.229 30.229 0 005.159 3.983l3.526 2.089v.131c.457 6.529 3.852 12.732 8.88 17.042 4.766 4.113 5.484 6.464 1.632 11.492z" fill="url(#paint17_linear)"/><path d="M371.132 537.436l-44.531 5.811c-.588.065-1.175-.392-1.175-.979l-.849-15.018c-.065-.522.326-1.045.849-1.11l5.354-.065c2.285-.066 4.636-.327 6.856-.914l4.178-1.11.131.13c5.289 4.505 12.471 6.595 19.392 6.007 6.595-.587 8.946.588 9.795 7.248z" fill="url(#paint18_linear)"/><path d="M244.265 337.048c4.113 4.636 48.644 96.897 48.644 96.897l29.643 84.556 19.001-4.636s-14.561-73.913-17.695-88.213c-3.134-14.299-21.024-88.669-21.024-88.669h-58.569v.065z" fill="url(#paint19_linear)"/><path d="M387.912 200.583c-3.265 2.612-17.564 8.097-17.564 8.097s-5.42 5.158-9.794 6.072c-5.877 1.176-3.657 12.928.914 11.166 3.656-1.372 21.09-8.228 22.592-9.403 1.501-1.24 9.337-2.35 8.814-8.684-.587-5.876-2.089-9.533-4.962-7.248z" fill="url(#paint20_linear)"/><path d="M263.331 211.618c-4.244 5.746-2.154 16.585 3.918 20.372l53.345 19.458c6.203 2.285 13.124 1.044 18.217-3.135l29.383-24.289-3.591-13.255-37.349 22.657-48.252-25.334c-5.419-2.807-12.014-1.371-15.671 3.526z" fill="url(#paint21_linear)"/><path d="M284.029 203.718c4.571 4.309 10.839 21.22 13.712 37.087l5.811 90.693c.392 6.464.98 10.121-3.199 10.121-6.399 0-19.392-2.286-30.362-.131-25.726 5.028-30.362-3.33-30.362-3.33l1.502-106.886c-1.175-17.76 6.203-30.558 22.788-32.517-.065.065 12.34-2.35 20.11 4.963z" fill="url(#paint22_linear)"/><path d="M240.674 265.355l-.327 22.135 32.647-48.775s-7.639-4.244-7.77-8.553c-.065 0-15.213 18.217-24.55 35.193z" fill="url(#paint23_linear)"/><path d="M209.79 357.224c.653-4.505 2.546-7.639 2.546-7.639s.457 3.721.523 5.484c.065 1.829.979 2.286 1.436 1.894 1.567-1.175 2.351-3.069 2.677-6.921.392-4.767 0-8.358.065-10.578.196-5.158 1.11-7.835 1.176-8.684.522-5.158 2.35-10.839 3.787-18.087 3.33-16.78-9.076-11.23-9.141-2.154-.066 7.313-8.032 18.021-9.142 22.853-.979 4.244-4.44 13.32-4.766 15.344-.196 1.306-.849 3.787-.261 6.268.13.588 1.306-.326 1.632.196.261.522-.326 2.481.131 2.938.261.327 1.567-.979 1.958-.718.653.457.262 2.481.784 2.808.588.326 1.959-1.698 2.416-1.568.979.327.914 2.612 1.632 2.351 1.437-.392 2.22-1.828 2.547-3.787z" fill="url(#paint24_linear)"/><path d="M258.957 201.302c-14.691-3.396-35.39 44.53-42.246 66.665-6.202 20.176-13.515 63.205-13.515 63.205 2.089 6.137 9.859 7.704 14.103 6.986l17.107-59.679s27.554-39.111 33.496-40.939c17.825-5.485 5.746-32.843-8.945-36.238z" fill="url(#paint25_linear)"/><path d="M294.345 231.01l.653-.261c-.13-.391-13.907-36.695-12.471-52.953l-.718-.066c-1.437 16.455 12.406 52.889 12.536 53.28z" fill="url(#paint26_linear)"/><path d="M262.22 183.934l-5.68-10.382 17.76-21.743 28.076 7.052-5.942 8.814 1.045 23.571-17.303 5.877.066 8.749c-.131 3.004-2.743 5.354-5.812 4.963-2.742-.327-7.051-2.155-10.447-3.787-2.807-1.371-4.44-4.375-3.983-7.444l2.22-15.67z" fill="url(#paint27_linear)"/><path d="M280.111 158.077s.066 2.873 8.684 3.656c6.008.588 7.118.653 7.118.653l.522 5.224s5.615 1.567 5.615-5.158c0 0 9.337-2.612 8.097-11.1 0 0-6.269.849-11.035-5.224-5.419-6.856-26.444-9.99-34.279-1.828l-1.437 2.089s-9.99 2.286-11.296 9.925c-1.24 6.987-3.199 29.644 13.712 34.018 2.481.653 4.897-1.24 4.897-3.852v-7.901l-.588-.13a4.372 4.372 0 01-3.33-4.767c.262-2.416 2.482-4.113 4.897-3.852h.131c2.22.261 3.852 2.155 3.852 4.375v12.797c0 6.726 5.42 10.513 12.145 10.904l6.987.131c1.632.131 3.003-1.175 3.003-2.808l-.653-17.041-12.732-.262a3.972 3.972 0 01-3.722-3.852l-.588-15.997z" fill="url(#paint28_linear)"/><path d="M380.076 296.109c.588-.392 1.11-.849 1.633-1.306 2.938-2.612 4.636-6.53 4.962-11.623 1.371-22.395-1.763-68.689-1.763-68.689h-.718c0 .196 3.069 46.947 1.763 68.624-.327 4.897-1.894 8.684-4.701 11.165-5.158 4.506-11.949 8.293-29.056-.522-10.643-5.485-21.155-14.43-26.444-20.372a271.384 271.384 0 01-5.942-6.921c-11.296-13.255-20.829-36.499-34.214-43.812-15.736-8.619-9.533-38.001-12.602-44.857l-.653.261c3.069 6.921-2.938 36.565 12.863 45.183 13.255 7.248 22.788 30.428 34.018 43.682 2.351 2.743 4.31 5.093 5.942 6.921 4.114 4.636 14.3 14.169 26.64 20.568 12.928 6.595 20.698 7.052 28.272 1.698z" fill="url(#paint29_linear)"/><path d="M273.255 174.009a2.192 2.192 0 00-2.611-2.155c-.914.131-1.633.914-1.763 1.763-.261 1.371.849 2.612 2.155 2.612.261 0 .522-.066.783-.131v1.371c0 .392.326.719.718.719a.725.725 0 00.718-.719v-3.46z" fill="url(#paint30_linear)"/><path d="M386.149 222l-9.599-2.351c-1.044-.261-1.697-1.306-1.436-2.416l7.248-29.708c.261-1.045 1.305-1.698 2.415-1.437l9.599 2.351c1.044.261 1.697 1.306 1.436 2.416l-7.248 29.708c-.261 1.045-1.371 1.698-2.415 1.437z" fill="url(#paint31_linear)"/><path d="M384.256 219.453l-6.725-1.632c-.849-.196-1.371-1.11-1.175-1.959l6.399-26.379c.195-.848 1.11-1.371 1.958-1.175l6.726 1.632c.848.196 1.371 1.11 1.175 1.959l-6.399 26.379c-.196.849-1.045 1.371-1.959 1.175z" fill="#fff"/><path d="M377.465 207.374c-.065.065 3.852-2.546 5.158-3.722 1.241-1.175.392-2.285-.13-2.481-1.045-.457-1.371.392-4.897 1.828-3.526 1.437-6.203 4.832-7.77 6.203-2.024 1.763 3.46 5.55 5.027 4.44 1.306-1.828 2.612-6.268 2.612-6.268z" fill="url(#paint32_linear)"/></g><defs><linearGradient id="paint0_linear" x1="401.811" y1="137.92" x2="477.37" y2="50.227" gradientUnits="userSpaceOnUse"><stop offset=".001" stop-color="#BDD4FF"/><stop offset=".999" stop-color="#EDF3FF"/></linearGradient><linearGradient id="paint1_linear" x1="390.218" y1="247.906" x2="557.005" y2="264.447" gradientUnits="userSpaceOnUse"><stop offset=".001" stop-color="#BDD4FF"/><stop offset=".999" stop-color="#EDF3FF"/></linearGradient><linearGradient id="paint2_linear" x1="209.246" y1="135.735" x2="129.513" y2="23.98" gradientUnits="userSpaceOnUse"><stop offset=".001" stop-color="#BDD4FF"/><stop offset=".999" stop-color="#EDF3FF"/></linearGradient><linearGradient id="paint3_linear" x1="400.773" y1="137.789" x2="476.265" y2="50.174" gradientUnits="userSpaceOnUse"><stop offset=".001" stop-color="#BDD4FF"/><stop offset=".999" stop-color="#EDF3FF"/></linearGradient><linearGradient id="paint4_linear" x1="389.189" y1="247.679" x2="555.829" y2="264.205" gradientUnits="userSpaceOnUse"><stop offset=".001" stop-color="#BDD4FF"/><stop offset=".999" stop-color="#EDF3FF"/></linearGradient><linearGradient id="paint5_linear" x1="208.378" y1="135.607" x2="128.715" y2="23.951" gradientUnits="userSpaceOnUse"><stop offset=".001" stop-color="#BDD4FF"/><stop offset=".999" stop-color="#EDF3FF"/></linearGradient><linearGradient id="paint32_linear" x1="363.112" y1="212.963" x2="376.171" y2="208.089" gradientUnits="userSpaceOnUse"><stop stop-color="#F6CFBE"/><stop offset="1" stop-color="#FFE8E1"/></linearGradient><linearGradient id="paint31_linear" x1="379.866" y1="202.35" x2="394.451" y2="206.884" gradientUnits="userSpaceOnUse"><stop stop-color="#F86E80"/><stop offset=".999" stop-color="#FFD4D8"/></linearGradient><linearGradient id="paint30_linear" x1="255.825" y1="151.995" x2="243.593" y2="134.303" gradientUnits="userSpaceOnUse"><stop stop-color="#F86E80"/><stop offset=".999" stop-color="#FFD4D8"/></linearGradient><linearGradient id="paint29_linear" x1="277.643" y1="137.349" x2="265.553" y2="119.861" gradientUnits="userSpaceOnUse"><stop stop-color="#F86E80"/><stop offset=".999" stop-color="#FFD4D8"/></linearGradient><linearGradient id="paint28_linear" x1="258.101" y1="186.529" x2="309.914" y2="150.783" gradientUnits="userSpaceOnUse"><stop stop-color="#233B67"/><stop offset=".325" stop-color="#39456E"/><stop offset=".732" stop-color="#4E4F75"/><stop offset=".998" stop-color="#565378"/></linearGradient><linearGradient id="paint27_linear" x1="274.04" y1="168.435" x2="289.064" y2="194.364" gradientUnits="userSpaceOnUse"><stop stop-color="#F6CFBE"/><stop offset="1" stop-color="#FFE8E1"/></linearGradient><linearGradient id="paint26_linear" x1="253.375" y1="153.69" x2="241.144" y2="135.999" gradientUnits="userSpaceOnUse"><stop stop-color="#F86E80"/><stop offset=".999" stop-color="#FFD4D8"/></linearGradient><linearGradient id="paint25_linear" x1="196.26" y1="528.261" x2="239.394" y2="282.577" gradientUnits="userSpaceOnUse"><stop stop-color="#4687FF"/><stop offset=".999" stop-color="#77A7FF"/></linearGradient><linearGradient id="paint14_linear" x1="177.678" y1="504.929" x2="195.949" y2="506.914" gradientUnits="userSpaceOnUse"><stop stop-color="#F6CFBE"/><stop offset="1" stop-color="#FFE8E1"/></linearGradient><linearGradient id="paint15_linear" x1="324.543" y1="520.605" x2="341.491" y2="520.605" gradientUnits="userSpaceOnUse"><stop stop-color="#F6CFBE"/><stop offset="1" stop-color="#FFE8E1"/></linearGradient><linearGradient id="paint16_linear" x1="224.106" y1="457.658" x2="253.337" y2="377.687" gradientUnits="userSpaceOnUse"><stop offset=".002" stop-color="#565378"/><stop offset=".268" stop-color="#4E4F75"/><stop offset=".675" stop-color="#39456E"/><stop offset="1" stop-color="#233B67"/></linearGradient><linearGradient id="paint17_linear" x1="177.599" y1="532.017" x2="195.331" y2="520.835" gradientUnits="userSpaceOnUse"><stop stop-color="#233B67"/><stop offset=".325" stop-color="#39456E"/><stop offset=".732" stop-color="#4E4F75"/><stop offset=".998" stop-color="#565378"/></linearGradient><linearGradient id="paint18_linear" x1="344.372" y1="547.303" x2="349.184" y2="525.67" gradientUnits="userSpaceOnUse"><stop stop-color="#233B67"/><stop offset=".325" stop-color="#39456E"/><stop offset=".732" stop-color="#4E4F75"/><stop offset=".998" stop-color="#565378"/></linearGradient><linearGradient id="paint19_linear" x1="259.292" y1="465.521" x2="340.513" y2="368.726" gradientUnits="userSpaceOnUse"><stop offset=".002" stop-color="#565378"/><stop offset=".268" stop-color="#4E4F75"/><stop offset=".675" stop-color="#39456E"/><stop offset="1" stop-color="#233B67"/></linearGradient><linearGradient id="paint20_linear" x1="364.627" y1="218.583" x2="377.22" y2="212.608" gradientUnits="userSpaceOnUse"><stop stop-color="#F6CFBE"/><stop offset="1" stop-color="#FFE8E1"/></linearGradient><linearGradient id="paint21_linear" x1="276.182" y1="214.062" x2="335.706" y2="229.406" gradientUnits="userSpaceOnUse"><stop stop-color="#4687FF"/><stop offset=".999" stop-color="#77A7FF"/></linearGradient><linearGradient id="paint22_linear" x1="258.719" y1="347.31" x2="279.515" y2="244.622" gradientUnits="userSpaceOnUse"><stop stop-color="#4687FF"/><stop offset=".999" stop-color="#77A7FF"/></linearGradient><linearGradient id="paint23_linear" x1="248.998" y1="256.736" x2="257.638" y2="261.516" gradientUnits="userSpaceOnUse"><stop stop-color="#4687FF"/><stop offset=".999" stop-color="#77A7FF" stop-opacity="0"/></linearGradient><linearGradient id="paint24_linear" x1="210.568" y1="329.019" x2="209.626" y2="354.83" gradientUnits="userSpaceOnUse"><stop stop-color="#F6CFBE"/><stop offset="1" stop-color="#FFE8E1"/></linearGradient><radialGradient id="paint13_radial" cx="0" cy="0" r="1" gradientUnits="userSpaceOnUse" gradientTransform="matrix(197.241 0 0 12.7282 287.523 544.061)"><stop stop-color="#305EB1" stop-opacity=".3"/><stop offset=".149" stop-color="#3461B2" stop-opacity=".255"/><stop offset=".289" stop-color="#3F6AB7" stop-opacity=".213"/><stop offset=".425" stop-color="#5279BE" stop-opacity=".172"/><stop offset=".56" stop-color="#6D8DC8" stop-opacity=".132"/><stop offset=".692" stop-color="#8FA8D5" stop-opacity=".092"/><stop offset=".824" stop-color="#B9C9E5" stop-opacity=".053"/><stop offset=".952" stop-color="#EBEFF7" stop-opacity=".014"/><stop offset="1" stop-color="#fff" stop-opacity="0"/></radialGradient><radialGradient id="paint12_radial" cx="0" cy="0" r="1" gradientUnits="userSpaceOnUse" gradientTransform="matrix(277.484 0 0 23.8995 277.505 444.953)"><stop stop-color="#305EB1" stop-opacity=".3"/><stop offset=".149" stop-color="#3461B2" stop-opacity=".255"/><stop offset=".289" stop-color="#3F6AB7" stop-opacity=".213"/><stop offset=".425" stop-color="#5279BE" stop-opacity=".172"/><stop offset=".56" stop-color="#6D8DC8" stop-opacity=".132"/><stop offset=".692" stop-color="#8FA8D5" stop-opacity=".092"/><stop offset=".824" stop-color="#B9C9E5" stop-opacity=".053"/><stop offset=".952" stop-color="#EBEFF7" stop-opacity=".014"/><stop offset="1" stop-color="#fff" stop-opacity="0"/></radialGradient><radialGradient id="paint11_radial" cx="0" cy="0" r="1" gradientUnits="userSpaceOnUse" gradientTransform="translate(352.198 190.491) scale(124.418)"><stop stop-color="#fff" stop-opacity=".8"/><stop offset="1" stop-color="#fff" stop-opacity="0"/></radialGradient><radialGradient id="paint10_radial" cx="0" cy="0" r="1" gradientUnits="userSpaceOnUse" gradientTransform="matrix(235.584 0 0 235.585 248.576 104.556)"><stop offset=".287" stop-color="#BCD3FF"/><stop offset=".584" stop-color="#98BCFF"/><stop offset=".842" stop-color="#80ACFF"/><stop offset="1" stop-color="#77A6FF"/></radialGradient><radialGradient id="paint9_radial" cx="0" cy="0" r="1" gradientUnits="userSpaceOnUse" gradientTransform="translate(248.478 104.567) scale(235.3)"><stop offset=".287" stop-color="#BCD3FF"/><stop offset=".584" stop-color="#98BCFF"/><stop offset=".842" stop-color="#80ACFF"/><stop offset="1" stop-color="#77A6FF"/></radialGradient><radialGradient id="paint8_radial" cx="0" cy="0" r="1" gradientUnits="userSpaceOnUse" gradientTransform="translate(248.634 105.528) scale(218.715)"><stop offset=".287" stop-color="#BCD3FF"/><stop offset=".584" stop-color="#98BCFF"/><stop offset=".842" stop-color="#80ACFF"/><stop offset="1" stop-color="#77A6FF"/></radialGradient><radialGradient id="paint7_radial" cx="0" cy="0" r="1" gradientUnits="userSpaceOnUse" gradientTransform="translate(247.673 104.556) scale(235.308)"><stop offset=".287" stop-color="#BCD3FF"/><stop offset=".584" stop-color="#98BCFF"/><stop offset=".842" stop-color="#80ACFF"/><stop offset="1" stop-color="#77A6FF"/></radialGradient><radialGradient id="paint6_radial" cx="0" cy="0" r="1" gradientUnits="userSpaceOnUse" gradientTransform="matrix(-44.42114 251.99167 -100.79293 -17.7678 267.491 115.185)"><stop stop-color="#E6EEFF"/><stop offset=".362" stop-color="#E3ECFF"/><stop offset=".626" stop-color="#DAE6FF"/><stop offset=".858" stop-color="#CADCFF"/><stop offset="1" stop-color="#BCD3FF"/></radialGradient><clipPath id="clip0"><path fill="#fff" d="M0 0h555v555H0z"/></clipPath></defs></svg>