<svg width="555" height="555" viewBox="0 0 555 555" fill="none" xmlns="http://www.w3.org/2000/svg"><g clip-path="url(#clip0)"><path opacity=".6" d="M397.119 270.122h137.705c9.337 0 17.499-6.53 19.327-15.671.588-2.742.849-5.615.849-8.553 0-19.001-12.275-35.129-29.382-40.874 0-.719.065-1.502.065-2.22 0-27.685-22.461-50.146-50.146-50.146-19.915 0-37.152 11.622-45.249 28.468-3.983-.849-8.096-1.175-12.406-1.045-27.488 1.045-49.362 23.833-49.297 51.321 0 10.252 3.004 19.785 8.227 27.75 4.44 6.856 12.145 10.97 20.307 10.97z" fill="url(#paint0_radial)"/><path opacity=".4" d="M302.574 56.023h65.621c4.44 0 8.292-3.135 9.206-7.444.261-1.306.392-2.677.392-4.114 0-9.076-5.877-16.715-13.973-19.457v-1.045c0-13.19-10.708-23.898-23.898-23.898-9.533 0-17.694 5.55-21.547 13.582-1.893-.392-3.852-.588-5.876-.457-13.059.522-23.506 11.36-23.506 24.485 0 4.897 1.436 9.402 3.917 13.255 2.09 3.134 5.746 5.093 9.664 5.093z" fill="url(#paint1_radial)"/><path opacity=".6" d="M129.543 183.934H16.518c-7.639 0-14.364-5.355-15.866-12.863a35.882 35.882 0 01-.718-7.052c0-15.605 10.12-28.86 24.093-33.561 0-.588-.065-1.241-.065-1.829 0-22.722 18.413-41.135 41.135-41.135 16.39 0 30.493 9.533 37.153 23.375 3.264-.653 6.66-.979 10.185-.848 22.527.848 40.483 19.588 40.418 42.114 0 8.423-2.482 16.193-6.726 22.788-3.591 5.681-9.859 9.011-16.584 9.011z" fill="url(#paint2_radial)"/><path d="M145.609 456.993h302.834c20.503 0 38.393-14.364 42.507-34.475a94.41 94.41 0 001.893-18.87c0-41.788-27.031-77.308-64.641-89.91.065-1.632.131-3.265.131-4.897 0-60.919-49.363-110.282-110.282-110.282-43.878 0-81.748 25.596-99.508 62.683a110.417 110.417 0 00-27.228-2.22c-60.397 2.285-108.453 52.431-108.388 112.828.065 22.461 6.66 43.421 18.021 61.05 9.794 15.083 26.64 24.093 44.661 24.093z" fill="url(#paint3_radial)"/><path opacity=".5" d="M236.886 277.826c55.858 0 101.141-6.869 101.141-15.344 0-8.474-45.283-15.344-101.141-15.344-55.858 0-101.141 6.87-101.141 15.344 0 8.475 45.283 15.344 101.141 15.344z" fill="url(#paint4_radial)"/><path d="M345.469 380.795l37.153 5.942c1.436.261 2.481 1.502 2.285 2.873l-3.983 24.681c-.196 1.371-1.567 2.285-3.069 2.024l-13.254-2.154-14.822 6.203c-1.175.522-2.416-.523-2.22-1.763l1.11-6.987-7.966-1.306c-1.437-.261-2.481-1.502-2.285-2.873l3.983-24.681c.196-1.24 1.567-2.155 3.068-1.959zm5.355 18.609c1.567.261 3.068-.849 3.33-2.416a2.885 2.885 0 00-2.416-3.33c-1.633-.261-3.069.849-3.33 2.416-.262 1.567.848 3.069 2.416 3.33zm9.99 1.632c1.567.262 3.068-.848 3.33-2.415a2.885 2.885 0 00-2.416-3.33c-1.567-.262-3.069.848-3.33 2.415-.261 1.568.848 3.069 2.416 3.33zm9.99 1.568c1.567.261 3.068-.849 3.33-2.416a2.885 2.885 0 00-2.416-3.33c-1.567-.262-3.069.848-3.33 2.416-.261 1.567.849 3.068 2.416 3.33z" fill="url(#paint5_linear)"/><path d="M173.42 256.606l-16.519 5.289 1.697 12.797 18.74-7.378-3.918-10.708z" fill="url(#paint6_linear)"/><path d="M210.508 354.155l-1.306 14.43-11.622 2.677-.784-19.458 13.712 2.351z" fill="url(#paint7_linear)"/><path d="M254.972 143.255c-2.22-.914-4.636-1.567-7.117-2.089l-17.107-2.938-29.252.261c-4.113 0-7.247.849-10.185 2.481-2.025 1.045-3.983 2.416-5.616 4.113l-46.816 23.441-.587 10.447 49.232-6.856c4.766-.653 9.206 2.743 9.728 7.574l-2.089 58.504 61.572 5.354v-39.895l-1.371-24.354 6.464-21.939c1.633-5.811-1.371-11.819-6.856-14.104z" fill="url(#paint8_linear)"/><path d="M185.108 393.658l31.276-17.238c.457-.261.588-.783.327-1.175l-6.53-10.055c-.196-.392-.718-.522-1.11-.327l-3.46 2.482c-1.502 1.044-3.134 1.958-4.832 2.611l-3.199 1.306v.131c-1.241 5.419-4.898 10.12-9.599 12.993-4.505 2.743-5.419 4.636-2.873 9.272z" fill="url(#paint9_linear)"/><path d="M155.726 300.614l-11.818-35.846a.896.896 0 01.653-1.11l12.275-3.069c.457-.131.915.065 1.045.522l.914 4.375c.392 1.893.98 3.722 1.828 5.485l1.568 3.33-.066.13c-2.938 5.093-3.46 11.296-1.893 16.911 1.501 5.42.849 7.509-4.506 9.272z" fill="url(#paint10_linear)"/><path d="M195.228 357.746l-6.66-66.992 6.66-52.627h27.946l-12.732 52.627.979 68.429-16.193-1.437z" fill="url(#paint11_linear)"/><path d="M170.809 256.867l85.404-32.321c5.812-2.089 12.276.588 14.953 6.138 2.154 4.505 1.306 9.859-2.155 13.516l-12.602 13.255a17.788 17.788 0 01-12.863 5.55l-22.853-3.983-45.51 10.316-4.374-12.471z" fill="url(#paint12_linear)"/><path d="M230.355 238.323s-2.873.066-2.416-2.285c1.502-.457 6.922-2.089 11.884-4.962 5.876 2.807-9.468 7.247-9.468 7.247z" fill="url(#paint13_linear)"/><path opacity=".7" d="M242.959 253.276l-22.33 5.68L241 262.482l1.959-9.206z" fill="url(#paint14_linear)"/><path d="M242.239 229.77s-23.767 13.907-22.657 16.389c1.11 2.481 6.922-3.722 7.705-2.808.392.522-5.942 4.701-4.962 6.138.914 1.501 6.529-4.114 6.921-3.787.522.457-5.485 4.962-4.179 6.007 1.306 1.044 6.399-2.873 7.117-2.612 1.045.326-3.852 2.873-1.763 3.852 2.09.98 19.066-16.715 19.066-16.715l-7.248-6.464z" fill="url(#paint15_linear)"/><path opacity=".51" d="M243.811 164.802l6.203 52.497 6.856-13.712-.784-14.169-12.275-24.616z" fill="url(#paint16_linear)"/><path d="M282.395 197.776c-1.175-4.244-16.585-44.139-16.585-44.139a22.248 22.248 0 00-3.33-4.766 29.789 29.789 0 00-3.918-3.657 16.708 16.708 0 00-4.374-2.024 16.363 16.363 0 00-3.918-.653c-2.481 1.437-.392 4.571-2.22 6.725-2.35 2.743-4.179 6.007-5.223 9.599-.392 1.371-.784 4.048-.849 6.66-.066 2.416 18.347 29.708 19.719 34.671-3.069 4.962-23.572 31.276-23.572 31.276s4.114 1.11 5.616 2.285c2.089 1.632 3.395 4.44 3.395 4.44s28.664-25.53 31.798-27.619c4.897-2.939 4.701-8.489 3.461-12.798z" fill="url(#paint17_linear)"/><path d="M228.658 119.227l5.158-10.186-17.825-20.437-26.836 7.64 5.876 10.316-.457 15.279c-.065 3.134 1.894 5.941 4.897 6.79l12.276 3.722 1.632 10.512c.588 3.657 3.199 6.66 6.791 7.64l.914.261c2.873.784 6.007.196 8.292-1.698 2.808-2.22 4.114-5.746 3.395-9.206l-4.113-20.633z" fill="url(#paint18_linear)"/><path d="M187.588 166.957l-13.451 1.371a2.435 2.435 0 01-2.677-2.22l-3.461-34.736a2.435 2.435 0 012.22-2.677l13.451-1.372a2.435 2.435 0 012.677 2.22l3.461 34.737c.065 1.306-.914 2.481-2.22 2.677z" fill="url(#paint19_linear)"/><path d="M160.882 151.548c4.309-2.482 6.203-9.142 8.031-10.121.196 1.763.261 3.004.522 5.093.196 1.567 9.599.979 10.643.849 5.159-.653 7.509-4.44 8.619-2.612 1.11 1.828-.13 1.959.196 2.938.327 1.045 1.045 1.045 1.371 2.09.261.914-.522 1.501-.457 2.22.131 1.11.849.653 1.11 2.154.261 1.502-.457.98-.653 2.677-.13 1.241 1.241 1.372.457 2.808-1.501 2.742-21.547 2.351-25.464 1.175l-4.375-9.271z" fill="url(#paint20_linear)"/><path d="M163.56 149.262s-.392 1.306.391 5.746c.784 4.44 3.265 6.334 3.265 6.334l-27.097 16.976c-1.567.914-3.526.914-5.093-.131l-1.632-1.044c-3.526-2.612-6.269-10.382.783-13.581 7.052-3.2 29.383-14.3 29.383-14.3z" fill="url(#paint21_linear)"/><path d="M233.293 92.979c-1.502-7.313-8.946-9.468-8.946-9.468l-1.436-1.959c-7.835-7.64-23.767-4.244-28.991 2.35-5.288 6.596-9.141 1.96-9.141 1.96-5.027 13.058 5.55 13.973 5.55 13.973.261 6.464 4.832 6.921 4.832 6.921l.065-7.117s6.007-.784 14.234-1.829c8.293-1.044 8.227-3.787 8.227-3.787l.327 17.826a3.82 3.82 0 01-3.395 3.395l-20.111 1.763.457 16.193c.065 1.567 1.371 2.742 2.938 2.612l14.104-1.306c6.399-.588 11.296-6.073 11.035-12.537l-.392-12.275v-1.045c.326-1.697 1.697-3.069 3.46-3.33h.131c2.416-.392 4.701 1.437 4.832 3.918.13 2.024-1.306 3.852-3.265 4.375l-.392.13.849 9.533c10.969-.392 6.529-23.049 5.028-30.296z" fill="url(#paint22_linear)"/><path d="M323.924 215.927h-20.503l1.894 22.658h16.78l1.829-22.658z" fill="url(#paint23_linear)"/><path d="M324.641 209.855h-21.938c-.849 0-1.502.588-1.633 1.437l-.392 2.807c-.13.98.653 1.894 1.633 1.894h22.787c1.045 0 1.829-.914 1.633-1.894l-.392-2.807c-.196-.849-.849-1.437-1.698-1.437z" fill="url(#paint24_linear)"/><path d="M309.102 197.188c1.24-6.072 8.096-5.615 4.113-14.626 6.334 2.416 5.485 6.987 4.571 9.207-.914 2.154-3.2 2.481-4.114 5.419-.783 2.612 2.873 4.832 1.241 7.901 0-.066-7.052-1.894-5.811-7.901z" fill="url(#paint25_linear)"/><path d="M308.513 185.109s2.024 2.938.849 4.701c-1.175 1.763-3.526 4.179-3.461 5.354.131 1.306-1.697-3.852.98-5.877 2.677-2.024 1.632-4.178 1.632-4.178z" fill="url(#paint26_linear)"/><path d="M320.004 193.793s-1.567.849-2.22 2.481c-.522 1.306-.196 3.461.131 3.983 0 0-.131-1.437.979-3.2.392-.783 1.502-1.501 1.11-3.264z" fill="url(#paint27_linear)"/><path d="M283.312 243.025c-29.056-4.44-33.888 7.9-46.947 17.107-5.876 4.179-9.794 2.873-15.213 4.57-6.269 1.959-24.224 75.676 31.798 60.855 56.022-14.822 98.333-36.435 98.333-36.435l27.75-15.735s.783-19.915-13.516-29.775c-14.299-9.859-33.822-10.708-33.822-10.708-2.155.784-14.169-2.677-24.094 4.31-5.615 3.982-20.894 6.333-24.289 5.811z" fill="url(#paint28_linear)"/><path opacity=".5" d="M277.5 555c153.259 0 277.5-10.144 277.5-22.657s-124.241-22.657-277.5-22.657C124.241 509.686 0 519.83 0 532.343S124.241 555 277.5 555z" fill="url(#paint29_radial)"/><path d="M382.954 296.305l-1.045 7.9c-.131 1.241.718 2.351 1.893 2.481l7.901 1.045-8.749-11.426z" fill="url(#paint30_linear)"/><path d="M382.561 308.841c-1.959-.261-3.33-2.024-3.069-3.983l1.175-8.88-15.213-2.024a2.243 2.243 0 00-2.481 1.894l-4.702 35.193a2.244 2.244 0 001.894 2.481l25.465 3.396a2.244 2.244 0 002.481-1.894l3.33-25.008-8.88-1.175zm-9.141 17.107c-.131.718-.784 1.306-1.567 1.176l-3.265-.458c-.718-.13-1.306-.783-1.175-1.567.13-.718.783-1.305 1.567-1.175l3.264.457a1.447 1.447 0 011.176 1.567zm.587-4.244c-.13.718-.783 1.306-1.567 1.175l-3.265-.457c-.718-.13-1.305-.783-1.175-1.567.131-.718.784-1.306 1.567-1.175l3.265.457a1.446 1.446 0 011.175 1.567zm-.979-3.069l-3.265-.457c-.718-.13-1.306-.783-1.175-1.567.13-.718.783-1.306 1.567-1.175l3.265.457c.718.131 1.305.783 1.175 1.567-.131.784-.849 1.306-1.567 1.175zm7.9 8.293c-.13.718-.783 1.306-1.567 1.175l-3.264-.457c-.719-.131-1.306-.784-1.176-1.567.131-.718.784-1.306 1.567-1.175l3.265.457c.784.13 1.306.848 1.175 1.567zm.588-4.244c-.131.718-.783 1.305-1.567 1.175l-3.265-.457c-.718-.131-1.306-.784-1.175-1.567.131-.719.784-1.306 1.567-1.176l3.265.457c.718.131 1.24.849 1.175 1.568zm-.979-3.069l-3.265-.457c-.718-.131-1.306-.784-1.175-1.567.13-.719.783-1.306 1.567-1.176l3.264.457c.719.131 1.306.784 1.176 1.567-.131.784-.849 1.306-1.567 1.176z" fill="url(#paint31_linear)"/><path d="M284.161 312.889c0-6.007 4.897-10.904 10.904-10.904.914 0 1.763.131 2.611.327-.13-10.513-8.618-18.936-19.131-18.936-10.577 0-19.131 8.554-19.131 19.132 0 10.577 8.554 19.131 19.131 19.131 2.938 0 5.681-.653 8.162-1.828-1.502-1.959-2.546-4.375-2.546-6.922zm-8.619-3.33a1.101 1.101 0 01-.653.196c-.196 0-.392-.065-.588-.13-.392-.196-.588-.588-.588-1.045v-11.949c0-.457.262-.849.588-1.045a1.39 1.39 0 011.241 0l9.598 6.008c.326.195.588.587.588 1.044 0 .392-.196.784-.588 1.045l-9.598 5.876z" fill="url(#paint32_linear)"/><path d="M294.998 305.511a7.58 7.58 0 00-7.574 7.574c0 5.877 7.574 10.186 7.574 10.186s7.574-4.244 7.574-10.186a7.58 7.58 0 00-7.574-7.574zm0 9.925a2.34 2.34 0 01-2.35-2.351 2.34 2.34 0 012.35-2.35 2.34 2.34 0 012.351 2.35 2.341 2.341 0 01-2.351 2.351z" fill="url(#paint33_linear)"/><path d="M245.441 407.958l-34.214 4.44c-2.089.261-3.591 2.22-3.33 4.309l1.959 15.214c.261 2.089 2.22 3.591 4.309 3.33l34.214-4.44c2.09-.262 3.591-2.22 3.33-4.31l-1.959-15.213c-.326-2.155-2.22-3.592-4.309-3.33zm-17.303 15.736l-5.68.718.718 5.68-3.787.523-.719-5.681-5.68.718-.522-3.787 5.68-.718-.718-5.681 3.787-.522.718 5.681 5.681-.719.522 3.788zm9.076 2.742a2.864 2.864 0 01-.718-5.681 2.865 2.865 0 013.199 2.481c.196 1.502-.914 2.939-2.481 3.2zm6.856-6.725a2.867 2.867 0 01-3.2-2.482 2.866 2.866 0 012.482-3.199 2.865 2.865 0 013.199 2.481 2.866 2.866 0 01-2.481 3.2z" fill="url(#paint34_linear)"/><path d="M281.809 384.452c-1.828.261-3.134 1.958-2.873 3.787.261 1.828 1.959 3.134 3.787 2.938 1.828-.261 3.134-1.959 2.938-3.787-.326-1.894-2.024-3.2-3.852-2.938zm-13.647-25.53l.458 3.33 3.33-.457 7.77 11.948-1.698 4.44c-.196.523-.261 1.11-.196 1.698.261 1.828 1.959 3.134 3.787 2.938l20.176-2.677-.457-3.33-19.458 2.612c-.261 0-.457-.131-.457-.392v-.196l1.175-2.938 12.537-1.632c1.241-.196 2.285-.98 2.742-2.09l4.571-11.687c.13-.261.13-.523.065-.849-.13-.914-.979-1.567-1.893-1.437l-24.812 3.265-2.024-3.134-5.616.588zm30.428 23.31c-1.829.261-3.135 1.958-2.873 3.787.261 1.828 1.958 3.134 3.787 2.938 1.828-.261 3.134-1.959 2.938-3.787-.261-1.894-2.024-3.2-3.852-2.938z" fill="url(#paint35_linear)"/><path d="M146.585 332.608l-24.485 3.461c-4.832.653-8.162 5.158-7.509 9.925l1.698 12.275c.653 4.832 5.158 8.162 9.925 7.509l24.485-3.461c4.832-.653 8.162-5.158 7.509-9.925l-1.698-12.275c-.653-4.832-5.158-8.162-9.925-7.509zm-3.721 16.259l-10.709 7.117c-.261.195-.653 0-.718-.327l-1.567-11.296c-.065-.326.261-.587.588-.522l12.275 4.179c.392.196.457.653.131.849z" fill="url(#paint36_linear)"/><path d="M465.285 372.764l-24.224-6.725c-2.481-.718-5.028.783-5.681 3.199l-6.725 24.224c-.718 2.482.784 5.028 3.199 5.681l11.949 3.33 3.33-11.818-3.134-.849c-.392-.131-.653-.522-.522-.914l1.044-3.853c.131-.391.523-.652.915-.522l3.068.849 1.045-3.657c1.175-4.309 4.44-5.876 8.293-4.831l3.134.849c.391.13.653.522.522.914l-.914 3.199c-.131.392-.522.653-.914.522l-1.894-.522c-2.089-.588-2.742.327-3.134 1.763l-.914 3.199 4.571 1.241a.76.76 0 01.522.979l-1.502 3.722c-.13.327-.522.523-.914.457l-4.113-1.11-3.331 11.818 7.118 1.959c2.481.719 5.027-.783 5.68-3.199l6.725-24.224c.719-2.416-.718-4.963-3.199-5.681z" fill="url(#paint37_linear)"/><path d="M135.877 395.16v17.368a5.69 5.69 0 00-3.134-.914 5.991 5.991 0 00-6.007 6.007 5.991 5.991 0 006.007 6.007 5.991 5.991 0 006.007-6.007v-16.193l15.278-4.375v10.317a5.687 5.687 0 00-3.134-.914 5.991 5.991 0 00-6.007 6.007 5.991 5.991 0 006.007 6.007c3.134 0 5.681-2.416 6.007-5.42v-23.963l-21.024 6.073z" fill="url(#paint38_linear)"/></g><defs><linearGradient id="paint25_linear" x1="315.146" y1="175.573" x2="313.253" y2="199.099" gradientUnits="userSpaceOnUse"><stop stop-color="#F86E80"/><stop offset=".999" stop-color="#FFD4D8"/></linearGradient><linearGradient id="paint21_linear" x1="129.135" y1="193.59" x2="137.826" y2="180.554" gradientUnits="userSpaceOnUse"><stop stop-color="#4687FF"/><stop offset=".999" stop-color="#77A7FF"/></linearGradient><linearGradient id="paint6_linear" x1="177.336" y1="265.653" x2="156.91" y2="265.653" gradientUnits="userSpaceOnUse"><stop stop-color="#F6CFBE"/><stop offset="1" stop-color="#FFE8E1"/></linearGradient><linearGradient id="paint7_linear" x1="198.807" y1="371.712" x2="205.824" y2="352.431" gradientUnits="userSpaceOnUse"><stop stop-color="#F6CFBE"/><stop offset="1" stop-color="#FFE8E1"/></linearGradient><linearGradient id="paint8_linear" x1="187.04" y1="223.691" x2="223.957" y2="163.445" gradientUnits="userSpaceOnUse"><stop stop-color="#4687FF"/><stop offset=".999" stop-color="#77A7FF"/></linearGradient><linearGradient id="paint9_linear" x1="206.884" y1="387.472" x2="193.596" y2="375.875" gradientUnits="userSpaceOnUse"><stop stop-color="#233B67"/><stop offset=".325" stop-color="#39456E"/><stop offset=".732" stop-color="#4E4F75"/><stop offset=".998" stop-color="#565378"/></linearGradient><linearGradient id="paint10_linear" x1="143.421" y1="280.168" x2="162.024" y2="280.749" gradientUnits="userSpaceOnUse"><stop stop-color="#233B67"/><stop offset=".325" stop-color="#39456E"/><stop offset=".732" stop-color="#4E4F75"/><stop offset=".998" stop-color="#565378"/></linearGradient><linearGradient id="paint11_linear" x1="205.867" y1="359.199" x2="205.867" y2="238.118" gradientUnits="userSpaceOnUse"><stop offset=".002" stop-color="#565378"/><stop offset=".268" stop-color="#4E4F75"/><stop offset=".675" stop-color="#39456E"/><stop offset="1" stop-color="#233B67"/></linearGradient><linearGradient id="paint12_linear" x1="272.32" y1="246.524" x2="170.816" y2="246.524" gradientUnits="userSpaceOnUse"><stop stop-color="#233B67"/><stop offset=".325" stop-color="#39456E"/><stop offset=".732" stop-color="#4E4F75"/><stop offset=".998" stop-color="#565378"/></linearGradient><linearGradient id="paint13_linear" x1="211.819" y1="233.346" x2="187.472" y2="231.893" gradientUnits="userSpaceOnUse"><stop stop-color="#F6CFBE"/><stop offset="1" stop-color="#FFE8E1"/></linearGradient><linearGradient id="paint14_linear" x1="238.734" y1="264.399" x2="228.565" y2="252.28" gradientUnits="userSpaceOnUse"><stop offset=".298" stop-color="#545175" stop-opacity="0"/><stop offset="1" stop-color="#565378" stop-opacity=".8"/></linearGradient><linearGradient id="paint15_linear" x1="245.371" y1="231.787" x2="223.421" y2="250.979" gradientUnits="userSpaceOnUse"><stop stop-color="#F6CFBE"/><stop offset="1" stop-color="#FFE8E1"/></linearGradient><linearGradient id="paint16_linear" x1="245.873" y1="191.406" x2="256.595" y2="187.532" gradientUnits="userSpaceOnUse"><stop offset=".001" stop-color="#77A7FF" stop-opacity="0"/><stop offset="1" stop-color="#4687FF"/></linearGradient><linearGradient id="paint17_linear" x1="262.356" y1="271.207" x2="260.775" y2="220.079" gradientUnits="userSpaceOnUse"><stop stop-color="#4687FF"/><stop offset=".999" stop-color="#77A7FF"/></linearGradient><linearGradient id="paint18_linear" x1="226.423" y1="121.515" x2="209.601" y2="117.835" gradientUnits="userSpaceOnUse"><stop stop-color="#F6CFBE"/><stop offset="1" stop-color="#FFE8E1"/></linearGradient><linearGradient id="paint19_linear" x1="171.845" y1="161.975" x2="191.501" y2="125.791" gradientUnits="userSpaceOnUse"><stop stop-color="#F86E80"/><stop offset=".999" stop-color="#FFD4D8"/></linearGradient><linearGradient id="paint5_linear" x1="354.502" y1="421.647" x2="343.214" y2="458.065" gradientUnits="userSpaceOnUse"><stop offset=".001" stop-color="#BDD4FF"/><stop offset=".999" stop-color="#EDF3FF"/></linearGradient><linearGradient id="paint22_linear" x1="198.024" y1="124.824" x2="219.387" y2="82.638" gradientUnits="userSpaceOnUse"><stop stop-color="#233B67"/><stop offset=".325" stop-color="#39456E"/><stop offset=".732" stop-color="#4E4F75"/><stop offset=".998" stop-color="#565378"/></linearGradient><linearGradient id="paint23_linear" x1="313.961" y1="244.011" x2="313.691" y2="215.887" gradientUnits="userSpaceOnUse"><stop offset=".287" stop-color="#BCD3FF"/><stop offset=".584" stop-color="#98BCFF"/><stop offset=".842" stop-color="#80ACFF"/><stop offset="1" stop-color="#77A6FF"/></linearGradient><linearGradient id="paint24_linear" x1="313.753" y1="208.376" x2="313.618" y2="221.221" gradientUnits="userSpaceOnUse"><stop stop-color="#BCD3FF"/><stop offset=".416" stop-color="#98BCFF"/><stop offset=".778" stop-color="#80ACFF"/><stop offset="1" stop-color="#77A6FF"/></linearGradient><linearGradient id="paint20_linear" x1="160.605" y1="149.171" x2="170.527" y2="151.282" gradientUnits="userSpaceOnUse"><stop stop-color="#F6CFBE"/><stop offset="1" stop-color="#FFE8E1"/></linearGradient><linearGradient id="paint26_linear" x1="308.819" y1="175.063" x2="306.926" y2="198.59" gradientUnits="userSpaceOnUse"><stop stop-color="#F86E80"/><stop offset=".999" stop-color="#FFD4D8"/></linearGradient><linearGradient id="paint27_linear" x1="320.424" y1="175.997" x2="318.531" y2="199.524" gradientUnits="userSpaceOnUse"><stop stop-color="#F86E80"/><stop offset=".999" stop-color="#FFD4D8"/></linearGradient><linearGradient id="paint28_linear" x1="298.819" y1="303.18" x2="289.084" y2="233.411" gradientUnits="userSpaceOnUse"><stop stop-color="#E6EEFF"/><stop offset=".362" stop-color="#E3ECFF"/><stop offset=".626" stop-color="#DAE6FF"/><stop offset=".858" stop-color="#CADCFF"/><stop offset="1" stop-color="#BCD3FF"/></linearGradient><linearGradient id="paint30_linear" x1="401.496" y1="283.213" x2="433.956" y2="240.028" gradientUnits="userSpaceOnUse"><stop offset=".001" stop-color="#BDD4FF"/><stop offset=".999" stop-color="#EDF3FF"/></linearGradient><linearGradient id="paint31_linear" x1="400.407" y1="282.396" x2="432.868" y2="239.211" gradientUnits="userSpaceOnUse"><stop offset=".001" stop-color="#BDD4FF"/><stop offset=".999" stop-color="#EDF3FF"/></linearGradient><linearGradient id="paint32_linear" x1="301.216" y1="262.925" x2="336.982" y2="205.067" gradientUnits="userSpaceOnUse"><stop offset=".001" stop-color="#BDD4FF"/><stop offset=".999" stop-color="#EDF3FF"/></linearGradient><linearGradient id="paint33_linear" x1="319.167" y1="274.022" x2="354.933" y2="216.164" gradientUnits="userSpaceOnUse"><stop offset=".001" stop-color="#BDD4FF"/><stop offset=".999" stop-color="#EDF3FF"/></linearGradient><linearGradient id="paint34_linear" x1="231.406" y1="389.667" x2="235.388" y2="311.012" gradientUnits="userSpaceOnUse"><stop offset=".001" stop-color="#BDD4FF"/><stop offset=".999" stop-color="#EDF3FF"/></linearGradient><linearGradient id="paint35_linear" x1="293.225" y1="322.194" x2="302.892" y2="260.965" gradientUnits="userSpaceOnUse"><stop offset=".001" stop-color="#BDD4FF"/><stop offset=".999" stop-color="#EDF3FF"/></linearGradient><linearGradient id="paint36_linear" x1="145.5" y1="379.415" x2="167.043" y2="450.875" gradientUnits="userSpaceOnUse"><stop offset=".001" stop-color="#BDD4FF"/><stop offset=".999" stop-color="#EDF3FF"/></linearGradient><linearGradient id="paint37_linear" x1="408.938" y1="431.974" x2="372.525" y2="474.253" gradientUnits="userSpaceOnUse"><stop offset=".001" stop-color="#BDD4FF"/><stop offset=".999" stop-color="#EDF3FF"/></linearGradient><linearGradient id="paint38_linear" x1="136.113" y1="443.236" x2="127.595" y2="485.218" gradientUnits="userSpaceOnUse"><stop offset=".001" stop-color="#BDD4FF"/><stop offset=".999" stop-color="#EDF3FF"/></linearGradient><radialGradient id="paint0_radial" cx="0" cy="0" r="1" gradientUnits="userSpaceOnUse" gradientTransform="translate(497.328 190.511) scale(90.6637)"><stop stop-color="#E6EEFF"/><stop offset=".362" stop-color="#E3ECFF"/><stop offset=".626" stop-color="#DAE6FF"/><stop offset=".858" stop-color="#CADCFF"/><stop offset="1" stop-color="#BCD3FF"/></radialGradient><radialGradient id="paint2_radial" cx="0" cy="0" r="1" gradientUnits="userSpaceOnUse" gradientTransform="translate(64.448 123.686) scale(80.2375)"><stop stop-color="#E6EEFF"/><stop offset=".362" stop-color="#E3ECFF"/><stop offset=".626" stop-color="#DAE6FF"/><stop offset=".858" stop-color="#CADCFF"/><stop offset="1" stop-color="#BCD3FF"/></radialGradient><radialGradient id="paint29_radial" cx="0" cy="0" r="1" gradientUnits="userSpaceOnUse" gradientTransform="matrix(277.493 0 0 26.366 277.497 532.528)"><stop stop-color="#305EB1" stop-opacity=".3"/><stop offset=".149" stop-color="#3461B2" stop-opacity=".255"/><stop offset=".289" stop-color="#3F6AB7" stop-opacity=".213"/><stop offset=".425" stop-color="#5279BE" stop-opacity=".172"/><stop offset=".56" stop-color="#6D8DC8" stop-opacity=".132"/><stop offset=".692" stop-color="#8FA8D5" stop-opacity=".092"/><stop offset=".824" stop-color="#B9C9E5" stop-opacity=".053"/><stop offset=".952" stop-color="#EBEFF7" stop-opacity=".014"/><stop offset="1" stop-color="#fff" stop-opacity="0"/></radialGradient><radialGradient id="paint3_radial" cx="0" cy="0" r="1" gradientUnits="userSpaceOnUse" gradientTransform="translate(314.492 253.529) scale(261.85)"><stop stop-color="#E6EEFF"/><stop offset=".362" stop-color="#E3ECFF"/><stop offset=".626" stop-color="#DAE6FF"/><stop offset=".858" stop-color="#CADCFF"/><stop offset="1" stop-color="#BCD3FF"/></radialGradient><radialGradient id="paint1_radial" cx="0" cy="0" r="1" gradientUnits="userSpaceOnUse" gradientTransform="translate(334.493 18.554) scale(46.9698)"><stop stop-color="#E6EEFF"/><stop offset=".362" stop-color="#E3ECFF"/><stop offset=".626" stop-color="#DAE6FF"/><stop offset=".858" stop-color="#CADCFF"/><stop offset="1" stop-color="#BCD3FF"/></radialGradient><radialGradient id="paint4_radial" cx="0" cy="0" r="1" gradientUnits="userSpaceOnUse" gradientTransform="matrix(-101.158 0 0 -17.837 236.945 262.445)"><stop stop-color="#305EB1" stop-opacity=".3"/><stop offset=".149" stop-color="#3461B2" stop-opacity=".255"/><stop offset=".289" stop-color="#3F6AB7" stop-opacity=".213"/><stop offset=".425" stop-color="#5279BE" stop-opacity=".172"/><stop offset=".56" stop-color="#6D8DC8" stop-opacity=".132"/><stop offset=".692" stop-color="#8FA8D5" stop-opacity=".092"/><stop offset=".824" stop-color="#B9C9E5" stop-opacity=".053"/><stop offset=".952" stop-color="#EBEFF7" stop-opacity=".014"/><stop offset="1" stop-color="#fff" stop-opacity="0"/></radialGradient><clipPath id="clip0"><path fill="#fff" d="M0 0h555v555H0z"/></clipPath></defs></svg>