<svg width="555" height="555" viewBox="0 0 555 555" fill="none" xmlns="http://www.w3.org/2000/svg"><g clip-path="url(#clip0)"><path d="M167.391 83.306H10.541v231.398h156.85V83.306z" fill="#fff"/><path d="M165.782 144.731v-4.745h-34.095v-57.8h-4.832v57.8H52.289v-57.8h-4.832v57.8H13.362v4.745h34.095v53.055H13.362v4.745h34.095v53.055H13.362v4.746h34.095v57.8h4.832v-57.8h74.566v57.8h4.832v-57.8h34.095v-4.746h-34.095v-53.055h34.095v-4.745h-34.095v-53.055h34.095zm-38.927 110.921H52.289v-53.055h74.566v53.055zm0-57.866H52.289v-53.055h74.566v53.055z" fill="url(#paint0_linear)"/><path d="M165.785 82.186H6.922v236.077h165.306V82.186h-6.443zM13.365 311.87V88.513H86.32V311.87H13.365zm152.42 0H92.763V88.513h73.022V311.87z" fill="url(#paint1_linear)"/><path d="M179.14 209.781H.008v5.668H179.14v-5.668z" fill="url(#paint2_linear)"/><path d="M179.14 198.049H.008v5.668H179.14v-5.668z" fill="url(#paint3_linear)"/><path d="M179.14 186.252H.008v5.668H179.14v-5.668z" fill="url(#paint4_linear)"/><path d="M179.14 174.521H.008v5.668H179.14v-5.668z" fill="url(#paint5_linear)"/><path d="M179.14 162.79H.008v5.668H179.14v-5.668z" fill="url(#paint6_linear)"/><path d="M179.14 150.992H.008v5.668H179.14v-5.668z" fill="url(#paint7_linear)"/><path d="M179.14 139.26H.008v5.668H179.14v-5.668z" fill="url(#paint8_linear)"/><path d="M179.14 127.464H.008v5.668H179.14v-5.668z" fill="url(#paint9_linear)"/><path d="M179.14 115.732H.008v5.668H179.14v-5.668z" fill="url(#paint10_linear)"/><path d="M179.14 104.001H.008v5.668H179.14v-5.668z" fill="url(#paint11_linear)"/><path d="M179.14 92.204H.008v5.668H179.14v-5.668z" fill="url(#paint12_linear)"/><path d="M179.14 80.472H.008v5.668H179.14v-5.668z" fill="url(#paint13_linear)"/><path d="M254.638 124.3c5.597 0 10.134-4.456 10.134-9.952 0-5.496-4.537-9.952-10.134-9.952-5.598 0-10.135 4.456-10.135 9.952 0 5.496 4.537 9.952 10.135 9.952z" fill="url(#paint14_linear)"/><path d="M255.578 0h-2.013v86.47h2.013V0z" fill="url(#paint15_linear)"/><path d="M262.957 80.01h-16.712V65.907c0-2.24 1.812-4.02 4.094-4.02h8.524c2.282 0 4.094 1.78 4.094 4.02v14.105z" fill="url(#paint16_linear)"/><path d="M284.639 114.546H224.57s.067-41.983 30.001-41.983c30 0 30.068 41.983 30.068 41.983z" fill="url(#paint17_linear)"/><path opacity=".5" d="M209.334 508.799c101.156 0 183.16-6.344 183.16-14.17 0-7.825-82.004-14.17-183.16-14.17-101.156 0-183.16 6.345-183.16 14.17 0 7.826 82.004 14.17 183.16 14.17z" fill="url(#paint18_radial)"/><path opacity=".5" d="M182.96 530.021c80.918 0 146.514-3.216 146.514-7.183 0-3.968-65.596-7.184-146.514-7.184s-146.514 3.216-146.514 7.184c0 3.967 65.596 7.183 146.514 7.183z" fill="url(#paint19_radial)"/><path d="M496.865 236.736H362.7c-3.959 0-7.181-3.163-7.181-7.052v-88.381c0-3.229 2.685-5.931 6.04-5.931h136.514c3.289 0 6.041 2.636 6.041 5.931v88.381c-.067 3.889-3.289 7.052-7.249 7.052z" fill="url(#paint20_linear)"/><path d="M500.96 141.303v88.381c0 3.889-3.222 7.052-7.182 7.052H357.533c-3.96 0-7.181-3.163-7.181-7.052v-88.381c0-3.229 2.684-5.865 5.973-5.865h138.594c3.356 0 6.041 2.636 6.041 5.865z" fill="url(#paint21_linear)"/><path d="M495.458 141.106v82.185c0 .33-.268.527-.537.527H356.394a.524.524 0 01-.537-.527v-82.185c0-.33.269-.528.537-.528h138.527c.269 0 .537.264.537.528z" fill="#fff"/><path d="M410.692 150.728h-46.78v1.582h46.78v-1.582z" fill="url(#paint22_linear)"/><path d="M453.176 150.728h-22.148v1.582h22.148v-1.582z" fill="url(#paint23_linear)"/><path d="M428.412 150.728h-15.503v1.582h15.503v-1.582z" fill="url(#paint24_linear)"/><path d="M410.692 191.458h-46.78v1.582h46.78v-1.582z" fill="url(#paint25_linear)"/><path d="M381.43 157.517h-17.518v1.581h17.518v-1.581z" fill="url(#paint26_linear)"/><path d="M423.914 157.517h-7.517v1.581h7.517v-1.581z" fill="url(#paint27_linear)"/><path d="M413.778 157.517h-30.135v1.581h30.135v-1.581z" fill="url(#paint28_linear)"/><path d="M381.43 198.247h-17.518v1.582h17.518v-1.582z" fill="url(#paint29_linear)"/><path d="M381.43 184.67h-17.518v1.582h17.518v-1.582z" fill="url(#paint30_linear)"/><path d="M381.43 164.305h-17.518v1.581h17.518v-1.581z" fill="url(#paint31_linear)"/><path d="M413.778 164.305h-30.135v1.581h30.135v-1.581z" fill="url(#paint32_linear)"/><path d="M423.908 233.177c1.965 0 3.558-1.563 3.558-3.493 0-1.929-1.593-3.493-3.558-3.493-1.964 0-3.557 1.564-3.557 3.493 0 1.93 1.593 3.493 3.557 3.493z" fill="url(#paint33_linear)"/><path d="M107.8 400.557h52.284v-9.49H107.8v9.49z" fill="#081344"/><path d="M358.874 359.586h-10.873v133.461h10.873V359.586z" fill="url(#paint34_linear)"/><path d="M315.112 358.862H304.24v134.186h10.872V358.862z" fill="url(#paint35_linear)"/><path d="M46.442 401.371h47.921v-9.49h-47.92v9.49z" fill="url(#paint36_linear)"/><path d="M315.107 401.371h39.666v-9.49h-39.666v9.49z" fill="url(#paint37_linear)"/><path d="M97.524 359.653H86.65v133.395h10.873V359.653z" fill="url(#paint38_linear)"/><path d="M53.763 358.862H42.89v134.186h10.873V358.862z" fill="url(#paint39_linear)"/><path d="M313.029 270.086h-35.975v75.99h35.975v-75.99z" fill="url(#paint40_linear)"/><path d="M351.285 321.098H233.027v-70.916c0-2.57 2.08-4.613 4.698-4.613H346.52c2.617 0 4.698 2.043 4.698 4.613v70.916h.067z" fill="url(#paint41_linear)"/><path d="M340.207 332.434h-98.325c-5.504 0-9.933-4.35-9.933-9.754v-3.757h119.332v3.757c0 5.404-5.638 9.754-11.074 9.754z" fill="url(#paint42_linear)"/><path d="M347.188 250.182v70.916H228.997v-70.916c0-2.57 2.081-4.613 4.698-4.613H342.49c2.618 0 4.698 2.043 4.698 4.613z" fill="url(#paint43_linear)"/><path d="M342.898 250.05v64.523c0 .264-.202.395-.47.395H233.7a.383.383 0 01-.403-.395V250.05c0-.263.202-.395.403-.395h108.728c.268-.066.47.132.47.395z" fill="url(#paint44_linear)"/><path d="M347.188 318.923v3.757c0 3.954-2.349 7.315-5.772 8.897a9.918 9.918 0 01-4.228.923H238.93c-5.503 0-9.933-4.35-9.933-9.755v-3.756h118.191v-.066z" fill="url(#paint45_linear)"/><path d="M276.315 257.563h-36.713v1.252h36.713v-1.252z" fill="url(#paint46_linear)"/><path d="M309.673 257.563H292.29v1.252h17.383v-1.252z" fill="url(#paint47_linear)"/><path d="M290.272 257.563h-12.215v1.252h12.215v-1.252z" fill="url(#paint48_linear)"/><path d="M276.315 289.528h-36.713v1.253h36.713v-1.253z" fill="url(#paint49_linear)"/><path d="M309.673 289.528H292.29v1.253h17.383v-1.253z" fill="url(#paint50_linear)"/><path d="M315.307 289.528h-4.094v1.253h4.094v-1.253z" fill="url(#paint51_linear)"/><path d="M290.272 289.528h-12.215v1.253h12.215v-1.253z" fill="url(#paint52_linear)"/><path d="M253.361 262.902h-13.759v1.252h13.759v-1.252z" fill="url(#paint53_linear)"/><path d="M286.716 262.902h-5.906v1.252h5.906v-1.252z" fill="url(#paint54_linear)"/><path d="M334.774 262.902h-28.86v1.252h28.86v-1.252z" fill="url(#paint55_linear)"/><path d="M303.831 262.902H288.26v1.252h15.571v-1.252z" fill="url(#paint56_linear)"/><path d="M278.8 262.902h-23.692v1.252H278.8v-1.252z" fill="url(#paint57_linear)"/><path d="M253.361 294.867h-13.759v1.252h13.759v-1.252z" fill="url(#paint58_linear)"/><path d="M253.361 284.189h-13.759v1.253h13.759v-1.253z" fill="url(#paint59_linear)"/><path d="M286.716 284.189h-5.906v1.252h5.906v-1.252z" fill="url(#paint60_linear)"/><path d="M303.831 284.189H288.26v1.252h15.571v-1.252z" fill="url(#paint61_linear)"/><path d="M278.8 284.189h-23.692v1.252H278.8v-1.252z" fill="url(#paint62_linear)"/><path d="M253.361 268.24h-13.759v1.253h13.759v-1.253z" fill="url(#paint63_linear)"/><path d="M278.8 268.24h-23.692v1.253H278.8v-1.253z" fill="url(#paint64_linear)"/><path d="M312.22 348.054h-59.129c-1.477 0-2.685-1.187-2.685-2.637s1.208-2.636 2.685-2.636h59.129c1.477 0 2.685 1.186 2.685 2.636 0 1.45-1.208 2.637-2.685 2.637z" fill="url(#paint65_linear)"/><path d="M363.835 359.587H216.18v-7.711c0-2.307 1.947-4.219 4.296-4.219h143.427c2.349 0 4.295 1.912 4.295 4.219v3.427c0 2.372-1.946 4.284-4.363 4.284z" fill="url(#paint66_linear)"/><path d="M323.904 351.875v7.711H31.211v-7.711c0-2.306 1.946-4.218 4.295-4.218h284.035c2.416 0 4.363 1.846 4.363 4.218z" fill="url(#paint67_linear)"/><path d="M153.966 277.731l5.638-20.497-4.363-10.282s5.168-7.183 4.899-7.843c-.335-.659 14.363-10.742 14.363-10.742l26.041 9.424-3.624.725-2.953 3.691-.134 13.379-16.242 16.279-3.759 15.884-14.027.527-7.383-5.668 1.544-4.877z" fill="url(#paint68_linear)"/><path d="M185.038 235.88s-.269 2.702 7.852 4.284c.806.132 1.007.198 1.007.198l-.067 1.779s3.758.791 4.027-2.899c0 0 10.806-2.834 8.054-11.6 0 0-5.235 2.241-9.396-2.307-5.571-6.129-20.739-12.127-29.129-5.206l-1.543 1.845s-9.732 1.12-11.813 8.106c-1.879 6.393-10.269 30.12 13.96 34.733 2.416.462 4.833-.659 5.101-3.097l.873-7.448-.537-.197c-2.014-.725-3.155-2.769-2.685-4.812a4.172 4.172 0 015.034-3.097h.134c2.081.461 3.49 2.372 3.222 4.481l-1.343 11.995c-.671 6.327-1.208 9.359 5.168 10.414l6.645.856c1.543.264 3.02-.856 3.154-2.372l1.141-16.016-6.846-.461c-1.946-.329-3.288-2.043-3.154-3.954l1.141-15.225z" fill="url(#paint69_linear)"/><path d="M205.253 493.773l-1.879 11.995-11.208 1.186 1.342-12.654 11.745-.527z" fill="url(#paint70_linear)"/><path d="M228.006 517.038l-36.511-.066c-.47 0-.873-.395-.873-.857l.94-11.204c0-.395.335-.725.805-.725l4.296.462c1.879.197 2.013.197 3.892 0l3.49-.396.067.066c3.759 3.889 11.075 6.129 16.712 6.393 5.504.198 7.182 1.318 7.182 6.327z" fill="url(#paint71_linear)"/><path d="M239.142 495.685l-.201 11.797-11.276 1.121-.402-12.391 11.879-.527z" fill="url(#paint72_linear)"/><path d="M266.526 520.268l-40.74-.066c-.537 0-1.006-.461-.939-.923l1.006-12.522c0-.461.403-.857.94-.857l4.832.528c2.081.197 2.282.197 4.363 0l3.893-.462.067.066c4.228 4.284 12.349 6.789 18.658 7.118 5.973.264 7.92 1.516 7.92 7.118z" fill="url(#paint73_linear)"/><path d="M190.616 498.979c2.013-33.678-1.007-70.783-3.692-77.11-2.751-3.889-24.094-12.391-45.437-13.314l10-21.419c27.987 1.384 51.344 7.974 58.324 19.772 2.953 4.943.872 15.29-.537 49.627-.738 17.993-2.618 42.049-2.618 42.049l-16.04.395z" fill="url(#paint74_linear)"/><path d="M241.355 406.512c-6.443-10.874-27.517-16.74-52.35-18.915l-57.586-2.57-.47 8.304c0 5.47 2.886 10.282 7.249 13.05.268.197.537.329.872.527 1.678.923 3.49 1.582 5.437 1.845.738.132 1.543.198 2.349.198h26.645c.738 0 1.476-.066 2.215-.132 20.336 1.516 42.551 13.116 42.551 13.116s6.645 43.366 7.45 77.11l15.101-.395s.403-20.629 1.074-38.621c1.342-34.338 2.416-48.508-.537-53.517z" fill="url(#paint75_linear)"/><path d="M261.563 339.156s-.067 0 0 0a20.415 20.415 0 00-9.329-.791l-7.584 1.121s1.611 11.27 1.611 10.874c.067-.857 14.833-1.054 21.477-1.779 1.41-.132 1.745-1.516 1.275-2.966 0 0-1.745-4.811-7.45-6.459z" fill="url(#paint76_linear)"/><path d="M194.242 302.314l-.335 38.226-.403 48.705s-1.074 1.186-4.228 2.834c-2.752 1.45-7.115 3.229-13.759 4.877-7.719 1.977-18.591 2.241-27.853 2.043-10.269-.264-13.759-1.12-13.759-1.12l.201-95.631c0-13.445 5.101-24.649 18.122-26.89 1.543-.264 5.906-.198 14.966 1.582 16.847 3.888 27.048 10.347 27.048 25.374z" fill="url(#paint77_linear)"/><path d="M154.702 427.867h-9.396v66.829h9.396v-66.829z" fill="url(#paint78_linear)"/><path d="M178.867 432.414h-56.176c-2.886 0-5.235-2.307-5.235-5.141s2.349-5.14 5.235-5.14h56.176c2.886 0 5.235 2.306 5.235 5.14 0 2.834-2.349 5.141-5.235 5.141z" fill="url(#paint79_linear)"/><path d="M171.417 494.498h-42.753c-10.269 0-18.591 7.711-18.591 17.202h5.839c0-6.525 5.705-11.798 12.752-11.798h18.524v12.523h5.705v-12.523h18.524c6.98 0 12.752 5.273 12.752 11.798h5.839c0-9.491-8.322-17.202-18.591-17.202z" fill="url(#paint80_linear)"/><path d="M156.849 494.498h-13.692v-5.997c0-1.186 1.007-2.175 2.215-2.175h9.262c1.208 0 2.215.989 2.215 2.175v5.997z" fill="url(#paint81_linear)"/><path d="M112.892 521.453c2.706 0 4.9-2.006 4.9-4.481s-2.194-4.482-4.9-4.482c-2.706 0-4.899 2.007-4.899 4.482s2.193 4.481 4.899 4.481z" fill="url(#paint82_linear)"/><path d="M119.602 516.576h-13.356v-1.186c0-3.361 2.819-6.129 6.242-6.129h.873c3.423 0 6.241 2.768 6.241 6.129v1.186z" fill="url(#paint83_linear)"/><path d="M187.454 521.453c2.706 0 4.9-2.006 4.9-4.481s-2.194-4.482-4.9-4.482c-2.706 0-4.899 2.007-4.899 4.482s2.193 4.481 4.899 4.481z" fill="url(#paint84_linear)"/><path d="M194.169 516.576h-13.357v-1.186c0-3.361 2.819-6.129 6.242-6.129h.873c3.423 0 6.242 2.768 6.242 6.129v1.186z" fill="url(#paint85_linear)"/><path d="M150.01 521.455c2.706 0 4.9-2.007 4.9-4.482s-2.194-4.482-4.9-4.482c-2.706 0-4.899 2.007-4.899 4.482s2.193 4.482 4.899 4.482z" fill="url(#paint86_linear)"/><path d="M156.72 516.577h-13.356v-1.186c0-3.361 2.819-6.129 6.242-6.129h.873c3.423 0 6.241 2.768 6.241 6.129v1.186z" fill="url(#paint87_linear)"/><path d="M68.332 304.489l16.51 111.646c.94 6.723 6.712 11.797 13.625 11.995l46.578-.527-22.282-138.931H82.426c-8.658 0-15.302 7.447-14.094 15.817z" fill="url(#paint88_linear)"/><path d="M208.539 408.16h-59.734l-16.242-111.58c-.738-5.074-5.772-8.633-11.275-7.908-5.437.659-9.329 5.338-8.591 10.413l18.188 119.752c.068.33.068.659.135.989.939 4.416 4.899 7.777 9.664 7.777h67.787c5.437 0 9.866-4.35 9.866-9.688.068-5.339-4.362-9.755-9.798-9.755z" fill="url(#paint89_linear)"/><path opacity=".51" d="M193.912 340.606l-.403 48.705s-1.074 1.186-4.228 2.834l-11.141-84.558c-.067-.066 10.537 25.967 15.772 33.019z" fill="url(#paint90_linear)"/><path d="M204.376 349.833c-8.792-2.175-12.618-10.348-16.443-19.377l-14.967-33.481c-.738-1.581.335-3.361 2.08-3.559l15.101-1.515c1.141-.132 2.148.527 2.618 1.515l17.047 41.522s25.303 2.768 36.512 2.109c1.275-.066 2.55.395 2.953 1.647 1.073 3.296.268 8.37-.336 11.073-.134 1.12-35.773 2.24-44.565.066z" fill="url(#paint91_linear)"/><path d="M325.445 324.525l-1.745.527 2.819 8.766 1.745-.528-2.819-8.765z" fill="url(#paint92_linear)"/><path d="M325.174 323.602l-1.745.593.269.857 1.745-.528-.269-.922z" fill="url(#paint93_linear)"/><path d="M323.764 321.23l-.604.197c-.335.066-.469.396-.402.725l.671 2.043 1.745-.527-.671-2.043a.539.539 0 00-.739-.395z" fill="url(#paint94_linear)"/><path d="M328.463 324.723l-1.812.197 1.343 9.161 1.812-.263-1.343-9.095z" fill="url(#paint95_linear)"/><path d="M328.328 323.8l-1.812.263.134.857 1.812-.197-.134-.923z" fill="url(#paint96_linear)"/><path d="M328.599 323.734h-.201l1.006 7.184a.887.887 0 00.739-.989l-.806-5.734c-.067-.263-.402-.461-.738-.461z" fill="url(#paint97_linear)"/><path d="M327.39 321.164l-.604.065a.645.645 0 00-.536.66l.268 2.109 1.812-.264-.268-2.109c-.067-.264-.336-.461-.672-.461z" fill="url(#paint98_linear)"/><path d="M339.54 327.556l-1.745-.461-2.349 8.963 1.813.396 2.281-8.898z" fill="url(#paint99_linear)"/><path d="M339.811 326.7l-1.812-.461-.202.856 1.745.462.269-.857z" fill="url(#paint100_linear)"/><path d="M340.01 326.7l-.202-.066-1.812 7.052a.864.864 0 001.074-.593l1.477-5.602a.857.857 0 00-.537-.791z" fill="url(#paint101_linear)"/><path d="M339.876 323.932l-.604-.132c-.336-.066-.672.132-.739.395l-.537 2.043 1.812.462.537-2.043a.606.606 0 00-.469-.725z" fill="url(#paint102_linear)"/><path d="M340.68 330.39h-15.906l1.476 17.268h12.954l1.476-17.268z" fill="url(#paint103_linear)"/><path d="M382.763 531.932c-2.35 0-3.96-2.306-3.021-4.481l34.095-80.67H428.2l-42.417 83.372c-.604 1.12-1.745 1.779-3.02 1.779z" fill="url(#paint104_linear)"/><path d="M486.124 531.932c2.349 0 3.96-2.306 3.02-4.481l-34.095-80.67h-14.363l42.418 83.372c.604 1.12 1.745 1.779 3.02 1.779z" fill="url(#paint105_linear)"/><path d="M435.442 516.049a2.798 2.798 0 002.819-2.702l2.416-63.93h-11.141l3.155 63.93c0 1.582 1.275 2.702 2.751 2.702z" fill="url(#paint106_linear)"/><path d="M513.442 434.72c-19.129-1.977-47.451-3.295-78.996-3.295-31.612 0-59.867 1.252-78.995 3.295h-25.303v6.13c0 5.206 46.713 9.424 104.365 9.424 57.653 0 104.365-4.218 104.365-9.424v-6.13h-25.436z" fill="url(#paint107_linear)"/><path d="M434.446 444.145c57.639 0 104.365-4.22 104.365-9.425 0-5.205-46.726-9.424-104.365-9.424-57.64 0-104.366 4.219-104.366 9.424 0 5.205 46.726 9.425 104.366 9.425z" fill="url(#paint108_linear)"/><path d="M368.674 436.039l.067-6.13c0-.988.805-1.713 1.812-1.713l35.84.527c1.007 0 1.745.791 1.745 1.78l-.067 6.129c0 .988-.805 1.713-1.812 1.713l-35.84-.527c-1.007 0-1.812-.791-1.745-1.779z" fill="url(#paint109_linear)"/><path d="M371.09 433.139l.067-2.966c0-.659.604-1.252 1.275-1.252l32.149.461c.671 0 1.275.593 1.275 1.252l-.067 2.966c0 .659-.604 1.252-1.276 1.252l-32.148-.461c-.738 0-1.342-.593-1.275-1.252z" fill="#fff"/><path opacity=".5" d="M434.44 555c66.461 0 120.339-13.515 120.339-30.185 0-16.671-53.878-30.186-120.339-30.186-66.462 0-120.339 13.515-120.339 30.186 0 16.67 53.877 30.185 120.339 30.185z" fill="url(#paint110_radial)"/><g opacity=".1"><path opacity=".063" d="M309.142 161.142c4.631 0 8.456 3.691 8.456 8.304v45.344c0 4.547-3.758 8.304-8.456 8.304h-11.074l-11.343 11.204-11.41-11.204h-11.074c-4.631 0-8.456-3.691-8.456-8.304v-45.41c0-4.547 3.758-8.304 8.456-8.304h44.901v.066z" fill="#EFEFEF"/><path opacity=".125" d="M309.14 161.273c4.497 0 8.188 3.625 8.188 8.041v45.344c0 4.415-3.691 8.04-8.188 8.04h-11.141l-11.275 11.073-11.276-11.073h-11.141c-4.497 0-8.188-3.625-8.188-8.04v-45.344c0-4.416 3.691-8.041 8.188-8.041h44.833z" fill="#DFDFDF"/><path opacity=".188" d="M309.138 161.471c4.363 0 7.92 3.493 7.92 7.777v45.343c0 4.284-3.557 7.777-7.92 7.777h-11.275l-11.141 10.941-11.142-10.941h-11.275c-4.363 0-7.92-3.493-7.92-7.777v-45.343c0-4.284 3.557-7.777 7.92-7.777h44.833z" fill="#CFCFCF"/><path opacity=".25" d="M309.14 161.669c4.229 0 7.652 3.361 7.652 7.513v45.344c0 4.152-3.423 7.513-7.652 7.513h-11.409l-11.007 10.809-11.007-10.809h-11.41c-4.228 0-7.651-3.361-7.651-7.513v-45.344c0-4.152 3.423-7.513 7.651-7.513h44.833z" fill="#BFBFBF"/><path opacity=".313" d="M309.142 161.866c4.027 0 7.383 3.23 7.383 7.25v45.344c0 3.954-3.288 7.249-7.383 7.249h-11.476l-10.94 10.743-10.94-10.743h-11.477c-4.027 0-7.383-3.229-7.383-7.249v-45.344c0-3.954 3.289-7.25 7.383-7.25h44.833z" fill="#AFAFAF"/><path opacity=".375" d="M309.14 161.998c3.893 0 7.115 3.098 7.115 6.986v45.344c0 3.823-3.155 6.986-7.115 6.986h-11.611l-10.805 10.611-10.806-10.611h-11.611c-3.893 0-7.114-3.098-7.114-6.986v-45.344c0-3.822 3.154-6.986 7.114-6.986h44.833z" fill="#9F9F9F"/><path opacity=".438" d="M309.139 162.196c3.758 0 6.779 3.031 6.779 6.656v45.344c0 3.691-3.088 6.656-6.779 6.656h-11.745l-10.672 10.48-10.671-10.48h-11.745c-3.759 0-6.779-3.031-6.779-6.656v-45.344c0-3.691 3.087-6.656 6.779-6.656h44.833z" fill="#8F8F8F"/><path opacity=".5" d="M309.141 162.394c3.624 0 6.51 2.899 6.51 6.393v45.343c0 3.559-2.953 6.393-6.51 6.393h-11.812l-10.605 10.413-10.604-10.413h-11.812c-3.625 0-6.511-2.9-6.511-6.393v-45.343c0-3.559 2.953-6.393 6.511-6.393h44.833z" fill="gray"/><path opacity=".563" d="M309.139 162.591c3.49 0 6.242 2.768 6.242 6.13v45.343c0 3.428-2.819 6.13-6.242 6.13h-11.947l-10.47 10.281-10.47-10.281h-11.946c-3.49 0-6.242-2.768-6.242-6.13v-45.343c0-3.428 2.819-6.13 6.242-6.13h44.833z" fill="#707070"/><path opacity=".625" d="M309.141 162.723c3.289 0 5.973 2.636 5.973 5.866v45.343c0 3.23-2.684 5.866-5.973 5.866H297.06l-10.336 10.216-10.335-10.15h-12.081c-3.289 0-5.974-2.636-5.974-5.866v-45.343c0-3.23 2.685-5.866 5.974-5.866h44.833v-.066z" fill="#606060"/><path opacity=".688" d="M309.143 162.92c3.155 0 5.705 2.505 5.705 5.602v45.344c0 3.098-2.55 5.602-5.705 5.602h-12.148l-10.269 10.084-10.268-10.084H264.31c-3.155 0-5.705-2.504-5.705-5.602v-45.344c0-3.097 2.55-5.602 5.705-5.602h44.833z" fill="#505050"/><path opacity=".75" d="M309.141 163.118c3.021 0 5.437 2.373 5.437 5.339v45.344c0 2.965-2.416 5.338-5.437 5.338h-12.282l-10.134 9.952-10.135-9.952h-12.282c-3.02 0-5.437-2.373-5.437-5.338v-45.344c0-2.966 2.417-5.339 5.437-5.339h44.833z" fill="#404040"/><path opacity=".813" d="M309.139 163.316c2.886 0 5.168 2.307 5.168 5.075v45.344c0 2.834-2.349 5.075-5.168 5.075h-12.416l-10 9.82-10.001-9.82h-12.416c-2.886 0-5.168-2.307-5.168-5.075v-45.344c0-2.834 2.349-5.075 5.168-5.075h44.833z" fill="#303030"/><path opacity=".875" d="M309.141 163.448c2.685 0 4.9 2.175 4.9 4.811v45.344c0 2.636-2.215 4.811-4.9 4.811h-12.483l-9.933 9.754-9.934-9.754h-12.483c-2.685 0-4.9-2.175-4.9-4.811v-45.344c0-2.636 2.215-4.811 4.9-4.811h44.833z" fill="#202020"/><path opacity=".938" d="M309.143 163.646c2.551 0 4.631 2.043 4.631 4.547v45.344c0 2.505-2.08 4.548-4.631 4.548h-12.617l-9.799 9.622-9.799-9.622H264.31c-2.55 0-4.631-2.043-4.631-4.548v-45.344c0-2.504 2.081-4.547 4.631-4.547h44.833z" fill="#101010"/><path opacity=".1" d="M309.145 163.843h-44.833c-2.416 0-4.363 1.912-4.363 4.284v45.344c0 2.373 1.947 4.284 4.363 4.284h12.752l9.665 9.49 9.664-9.49h12.752c2.417 0 4.363-1.911 4.363-4.284v-45.344c0-2.372-1.946-4.284-4.363-4.284z" fill="#000"/></g><path d="M309.944 162.723h-46.445c-2.483 0-4.496 1.977-4.496 4.416v46.925c0 2.439 2.013 4.416 4.496 4.416h13.222l10.001 9.82 10-9.82h13.222c2.483 0 4.496-1.977 4.496-4.416v-46.925c0-2.439-2.013-4.416-4.496-4.416z" fill="#fff"/><path d="M300.145 178.08l-13.155-3.889c-.201-.066-.403-.066-.537 0l-13.155 3.889a.992.992 0 00-.671.922v14.17c0 1.846.738 3.757 2.282 5.602 1.141 1.45 2.752 2.9 4.698 4.284 3.356 2.373 6.577 3.823 6.712 3.889.134.066.268.066.402.066.135 0 .269 0 .403-.066s3.423-1.516 6.712-3.889c1.946-1.384 3.557-2.834 4.698-4.284 1.476-1.911 2.282-3.756 2.282-5.602v-14.17a.932.932 0 00-.671-.922zm-14.766 16.74l-5.369-5.141 2.08-2.043 3.289 3.098 6.98-6.723 2.081 2.043-9.061 8.766z" fill="url(#paint111_linear)"/><g opacity=".1"><path opacity=".063" d="M446.32 48.245c4.631 0 8.457 3.69 8.457 8.304v45.344c0 4.548-3.758 8.304-8.457 8.304h-11.074l-11.342 11.205-11.41-11.205H401.42c-4.631 0-8.457-3.69-8.457-8.304V56.549c0-4.547 3.759-8.304 8.457-8.304h44.9z" fill="#EFEFEF"/><path opacity=".125" d="M446.323 48.442c4.497 0 8.188 3.625 8.188 8.041v45.344c0 4.416-3.691 8.04-8.188 8.04h-11.141l-11.276 11.073-11.275-11.073H401.49c-4.497 0-8.189-3.624-8.189-8.04v-45.41c0-4.416 3.692-8.04 8.189-8.04h44.833v.065z" fill="#DFDFDF"/><path opacity=".188" d="M446.317 48.574c4.363 0 7.92 3.492 7.92 7.776v45.344c0 4.284-3.557 7.777-7.92 7.777h-11.275L423.9 120.412l-11.141-10.941h-11.275c-4.363 0-7.92-3.493-7.92-7.777V56.35c0-4.284 3.557-7.776 7.92-7.776h44.833z" fill="#CFCFCF"/><path opacity=".25" d="M446.319 48.771c4.228 0 7.651 3.361 7.651 7.513v45.344c0 4.152-3.423 7.514-7.651 7.514h-11.41l-11.007 10.808-11.007-10.808h-11.409c-4.229 0-7.652-3.362-7.652-7.514V56.284c0-4.152 3.423-7.513 7.652-7.513h44.833z" fill="#BFBFBF"/><path opacity=".313" d="M446.326 48.969c4.027 0 7.382 3.23 7.382 7.25v45.343c0 3.955-3.288 7.25-7.382 7.25h-11.477l-10.94 10.743-10.873-10.809h-11.477c-4.027 0-7.382-3.229-7.382-7.25V56.219c0-3.955 3.288-7.25 7.382-7.25h44.767z" fill="#AFAFAF"/><path opacity=".375" d="M446.319 49.166c3.893 0 7.115 3.098 7.115 6.987v45.343c0 3.823-3.155 6.986-7.115 6.986h-11.611l-10.806 10.611-10.805-10.611h-11.611c-3.893 0-7.115-3.097-7.115-6.986v-45.41c0-3.822 3.155-6.985 7.115-6.985h44.833v.066z" fill="#9F9F9F"/><path opacity=".438" d="M446.318 49.298c3.758 0 6.778 3.032 6.778 6.657v45.344c0 3.69-3.087 6.656-6.778 6.656h-11.746l-10.671 10.479-10.671-10.479h-11.746c-3.758 0-6.778-3.031-6.778-6.656V56.021c0-3.691 3.087-6.657 6.778-6.657h44.834v-.066z" fill="#8F8F8F"/><path opacity=".5" d="M446.32 49.496c3.624 0 6.51 2.9 6.51 6.393v45.344c0 3.559-2.953 6.393-6.51 6.393h-11.813l-10.604 10.413-10.604-10.413h-11.813c-3.624 0-6.51-2.9-6.51-6.393V55.955c0-3.56 2.953-6.393 6.51-6.393h44.834v-.066z" fill="gray"/><path opacity=".563" d="M446.318 49.694c3.49 0 6.242 2.768 6.242 6.129v45.344c0 3.427-2.819 6.129-6.242 6.129h-11.947l-10.47 10.281-10.47-10.215h-11.947c-3.49 0-6.241-2.768-6.241-6.129v-45.41c0-3.427 2.818-6.13 6.241-6.13h44.834z" fill="#707070"/><path opacity=".625" d="M446.324 49.891c3.289 0 5.973 2.637 5.973 5.866v45.344c0 3.229-2.684 5.866-5.973 5.866h-12.081l-10.336 10.149-10.336-10.149H401.49c-3.288 0-5.973-2.637-5.973-5.866V55.757c0-3.23 2.685-5.866 5.973-5.866h44.834z" fill="#606060"/><path opacity=".688" d="M446.322 50.023c3.154 0 5.705 2.505 5.705 5.602v45.344c0 3.098-2.551 5.602-5.705 5.602h-12.148l-10.269 10.084-10.269-10.084h-12.148c-3.154 0-5.704-2.504-5.704-5.602V55.691c0-3.097 2.55-5.602 5.704-5.602h44.834v-.066z" fill="#505050"/><path opacity=".75" d="M446.32 50.221c3.02 0 5.436 2.373 5.436 5.339v45.343c0 2.966-2.416 5.339-5.436 5.339h-12.282l-10.135 9.952-10.134-9.952h-12.282c-3.021 0-5.437-2.373-5.437-5.339V55.56c0-2.966 2.416-5.339 5.437-5.339h44.833z" fill="#404040"/><path opacity=".813" d="M446.318 50.419c2.886 0 5.168 2.307 5.168 5.075v45.344c0 2.834-2.349 5.074-5.168 5.074h-12.416l-10.001 9.82-10-9.82h-12.416c-2.886 0-5.168-2.306-5.168-5.074V55.494c0-2.834 2.349-5.075 5.168-5.075h44.833z" fill="#303030"/><path opacity=".875" d="M446.32 50.616c2.685 0 4.9 2.175 4.9 4.811v45.344c0 2.636-2.215 4.811-4.9 4.811h-12.483l-9.934 9.755-9.933-9.755h-12.483c-2.685 0-4.9-2.175-4.9-4.811V55.427c0-2.636 2.215-4.81 4.9-4.81h44.833z" fill="#202020"/><path opacity=".938" d="M446.322 50.814c2.551 0 4.631 2.043 4.631 4.548v45.344c0 2.504-2.08 4.547-4.631 4.547h-12.618l-9.799 9.622-9.799-9.688h-12.617c-2.551 0-4.631-2.043-4.631-4.547V55.296c0-2.505 2.08-4.548 4.631-4.548h44.833v.066z" fill="#101010"/><path opacity=".1" d="M446.324 50.946h-44.833c-2.416 0-4.363 1.911-4.363 4.284v45.344c0 2.372 1.947 4.284 4.363 4.284h12.752l9.664 9.49 9.665-9.49h12.752c2.416 0 4.363-1.912 4.363-4.284V55.23c0-2.373-1.947-4.284-4.363-4.284z" fill="#000"/></g><path d="M447.126 49.825h-46.444c-2.483 0-4.497 1.978-4.497 4.416v46.926c0 2.438 2.014 4.415 4.497 4.415h13.222l10 9.821 10.001-9.821h13.221c2.484 0 4.497-1.977 4.497-4.415V54.241c0-2.438-2.013-4.416-4.497-4.416z" fill="#fff"/><path d="M437.328 65.182l-13.088-3.889c-.201-.066-.403-.066-.537 0l-13.154 3.889a.993.993 0 00-.672.922v14.17c0 1.846.739 3.757 2.282 5.602 1.141 1.45 2.752 2.9 4.698 4.284 3.356 2.373 6.578 3.823 6.712 3.889.134.066.268.066.403.066.134 0 .268 0 .402-.066.135-.066 3.423-1.516 6.712-3.889 1.946-1.384 3.557-2.834 4.698-4.284 1.477-1.911 2.282-3.756 2.282-5.602v-14.17c-.067-.395-.336-.79-.738-.922zm-14.766 16.74l-5.369-5.14 2.081-2.044 3.288 3.098 6.98-6.723 2.081 2.043-9.061 8.766z" fill="url(#paint112_linear)"/><g opacity=".1"><path opacity=".063" d="M496.86 311.607c4.631 0 8.457 3.69 8.457 8.304v45.344c0 4.547-3.759 8.304-8.457 8.304h-11.074l-11.343 11.204-11.409-11.204h-11.075c-4.631 0-8.456-3.691-8.456-8.304v-45.344c0-4.548 3.758-8.304 8.456-8.304h44.901z" fill="#EFEFEF"/><path opacity=".125" d="M496.858 311.804c4.497 0 8.189 3.625 8.189 8.041v45.344c0 4.416-3.692 8.04-8.189 8.04h-11.141l-11.275 11.007-11.276-11.072h-11.141c-4.497 0-8.188-3.625-8.188-8.041v-45.344c0-4.416 3.691-8.04 8.188-8.04h44.833v.065z" fill="#DFDFDF"/><path opacity=".188" d="M496.857 312.002c4.362 0 7.919 3.493 7.919 7.777v45.344c0 4.284-3.557 7.777-7.919 7.777h-11.276l-11.141 10.94-11.141-10.94h-11.276c-4.362 0-7.92-3.493-7.92-7.777v-45.344c0-4.284 3.558-7.777 7.92-7.777h44.834z" fill="#CFCFCF"/><path opacity=".25" d="M496.859 312.134c4.228 0 7.651 3.362 7.651 7.514v45.343c0 4.153-3.423 7.514-7.651 7.514h-11.41l-11.007 10.808-11.007-10.808h-11.41c-4.228 0-7.651-3.361-7.651-7.514v-45.343c0-4.152 3.423-7.514 7.651-7.514h44.834z" fill="#BFBFBF"/><path opacity=".313" d="M496.857 312.332c4.027 0 7.382 3.229 7.382 7.249v45.344c0 3.954-3.288 7.25-7.382 7.25H485.38l-10.94 10.743-10.94-10.743h-11.477c-4.027 0-7.382-3.23-7.382-7.25v-45.344c0-3.954 3.288-7.249 7.382-7.249h44.834z" fill="#AFAFAF"/><path opacity=".375" d="M496.859 312.529c3.892 0 7.114 3.098 7.114 6.986v45.344c0 3.823-3.154 6.986-7.114 6.986h-11.611l-10.806 10.611-10.806-10.611h-11.611c-3.892 0-7.114-3.097-7.114-6.986v-45.344c0-3.822 3.154-6.986 7.114-6.986h44.834z" fill="#9F9F9F"/><path opacity=".438" d="M496.857 312.727c3.759 0 6.779 3.032 6.779 6.657v45.343c0 3.691-3.087 6.657-6.779 6.657h-11.745l-10.671 10.479-10.672-10.413h-11.745c-3.759 0-6.779-3.032-6.779-6.657V319.45c0-3.691 3.087-6.657 6.779-6.657h44.833v-.066z" fill="#8F8F8F"/><path opacity=".5" d="M496.859 312.859c3.625 0 6.511 2.9 6.511 6.393v45.344c0 3.559-2.954 6.393-6.511 6.393h-11.812l-10.604 10.413-10.605-10.347h-11.812c-3.624 0-6.51-2.9-6.51-6.393v-45.344c0-3.559 2.953-6.393 6.51-6.393h44.833v-.066z" fill="gray"/><path opacity=".563" d="M496.857 313.057c3.49 0 6.242 2.768 6.242 6.129v45.344c0 3.427-2.819 6.129-6.242 6.129h-11.946l-10.47 10.281-10.47-10.281h-11.947c-3.49 0-6.242-2.768-6.242-6.129v-45.344c0-3.427 2.819-6.129 6.242-6.129h44.833z" fill="#707070"/><path opacity=".625" d="M496.859 313.254c3.289 0 5.974 2.637 5.974 5.866v45.344c0 3.229-2.685 5.866-5.974 5.866h-12.08l-10.336 10.149-10.336-10.149h-12.081c-3.289 0-5.973-2.637-5.973-5.866V319.12c0-3.229 2.684-5.866 5.973-5.866h44.833z" fill="#606060"/><path opacity=".688" d="M496.861 313.452c3.155 0 5.705 2.505 5.705 5.602v45.344c0 3.098-2.55 5.602-5.705 5.602h-12.148l-10.268 10.084L464.176 370h-12.148c-3.154 0-5.705-2.504-5.705-5.602v-45.344c0-3.097 2.551-5.602 5.705-5.602h44.833z" fill="#505050"/><path opacity=".75" d="M496.86 313.584c3.02 0 5.436 2.373 5.436 5.339v45.343c0 2.966-2.416 5.339-5.436 5.339h-12.283l-10.134 10.018-10.135-9.952h-12.282c-3.02 0-5.436-2.373-5.436-5.339v-45.343c0-2.966 2.416-5.339 5.436-5.339h44.834v-.066z" fill="#404040"/><path opacity=".813" d="M496.858 313.782c2.886 0 5.168 2.306 5.168 5.075V364.2c0 2.834-2.35 5.075-5.168 5.075h-12.417l-10 9.82-10-9.82h-12.417c-2.886 0-5.168-2.307-5.168-5.075v-45.343c0-2.834 2.349-5.075 5.168-5.075h44.834z" fill="#303030"/><path opacity=".875" d="M496.86 313.979c2.684 0 4.899 2.175 4.899 4.811v45.344c0 2.636-2.215 4.811-4.899 4.811h-12.484l-9.933 9.755-9.933-9.755h-12.484c-2.684 0-4.899-2.175-4.899-4.811V318.79c0-2.636 2.215-4.811 4.899-4.811h44.834z" fill="#202020"/><path opacity=".938" d="M496.858 314.177c2.55 0 4.631 2.043 4.631 4.548v45.343c0 2.505-2.081 4.548-4.631 4.548H484.24l-9.799 9.622-9.799-9.622h-12.618c-2.55 0-4.631-2.043-4.631-4.548v-45.343c0-2.505 2.081-4.548 4.631-4.548h44.834z" fill="#101010"/><path opacity=".1" d="M496.864 314.375H452.03c-2.416 0-4.362 1.911-4.362 4.284v45.344c0 2.372 1.946 4.284 4.362 4.284h12.752l9.665 9.49 9.665-9.49h12.752c2.416 0 4.362-1.912 4.362-4.284v-45.344c0-2.373-1.946-4.284-4.362-4.284z" fill="#000"/></g><path d="M497.666 313.188h-46.444c-2.484 0-4.497 1.978-4.497 4.416v46.926c0 2.438 2.013 4.416 4.497 4.416h13.222l10 9.82 10-9.82h13.222c2.483 0 4.497-1.978 4.497-4.416v-46.926c0-2.438-2.014-4.416-4.497-4.416z" fill="#fff"/><path d="M487.867 328.545l-13.155-3.889c-.201-.066-.403-.066-.537 0l-13.155 3.889a.993.993 0 00-.671.923v14.17c0 1.845.738 3.756 2.282 5.602 1.141 1.45 2.752 2.899 4.698 4.284 3.356 2.372 6.578 3.822 6.712 3.888.134.066.268.066.403.066.134 0 .268 0 .402-.066s3.423-1.516 6.712-3.888c1.946-1.385 3.557-2.834 4.698-4.284 1.477-1.912 2.282-3.757 2.282-5.602v-14.17a.993.993 0 00-.671-.923zm-14.766 16.74l-5.369-5.141 2.081-2.043 3.288 3.098 6.98-6.723 2.081 2.044-9.061 8.765z" fill="url(#paint113_linear)"/><g opacity=".1"><path opacity=".063" d="M410.825 344.759c4.631 0 8.457 3.69 8.457 8.304v45.344c0 4.547-3.758 8.304-8.457 8.304h-11.074l-11.342 11.204-11.41-11.204h-11.074c-4.631 0-8.457-3.691-8.457-8.304v-45.344c0-4.548 3.759-8.304 8.457-8.304h44.9z" fill="#EFEFEF"/><path opacity=".125" d="M410.824 344.956c4.497 0 8.188 3.625 8.188 8.04v45.344c0 4.416-3.691 8.041-8.188 8.041h-11.141l-11.276 11.072-11.275-11.072h-11.141c-4.497 0-8.189-3.625-8.189-8.041v-45.344c0-4.415 3.692-8.04 8.189-8.04h44.833z" fill="#DFDFDF"/><path opacity=".188" d="M410.822 345.153c4.363 0 7.92 3.493 7.92 7.777v45.344c0 4.284-3.557 7.777-7.92 7.777h-11.275l-11.142 10.941-11.141-11.007h-11.275c-4.363 0-7.92-3.493-7.92-7.777v-45.344c0-4.284 3.557-7.777 7.92-7.777h44.833v.066z" fill="#CFCFCF"/><path opacity=".25" d="M410.824 345.285c4.228 0 7.651 3.362 7.651 7.514v45.344c0 4.152-3.423 7.513-7.651 7.513h-11.41l-11.007 10.809-11.007-10.809h-11.409c-4.229 0-7.652-3.361-7.652-7.513v-45.344c0-4.152 3.423-7.514 7.652-7.514h44.833z" fill="#BFBFBF"/><path opacity=".313" d="M410.822 345.483c4.027 0 7.383 3.229 7.383 7.25v45.343c0 3.955-3.289 7.25-7.383 7.25h-11.477l-10.94 10.743-10.939-10.743h-11.477c-4.027 0-7.383-3.229-7.383-7.25v-45.343c0-3.955 3.289-7.25 7.383-7.25h44.833z" fill="#AFAFAF"/><path opacity=".375" d="M410.824 345.681c3.893 0 7.115 3.097 7.115 6.986v45.344c0 3.822-3.155 6.986-7.115 6.986h-11.611l-10.806 10.611-10.805-10.611h-11.611c-3.893 0-7.115-3.098-7.115-6.986v-45.41c0-3.823 3.155-6.986 7.115-6.986h44.833v.066z" fill="#9F9F9F"/><path opacity=".438" d="M410.823 345.878c3.758 0 6.778 3.032 6.778 6.657v45.344c0 3.69-3.087 6.656-6.778 6.656h-11.746l-10.671 10.479-10.671-10.479h-11.746c-3.758 0-6.778-3.032-6.778-6.656v-45.344c0-3.691 3.087-6.657 6.778-6.657h44.834z" fill="#8F8F8F"/><path opacity=".5" d="M410.825 346.01c3.624 0 6.51 2.9 6.51 6.393v45.344c0 3.559-2.953 6.393-6.51 6.393h-11.813l-10.604 10.413-10.604-10.413h-11.813c-3.624 0-6.51-2.9-6.51-6.393v-45.344c0-3.559 2.953-6.393 6.51-6.393h44.834z" fill="gray"/><path opacity=".563" d="M410.823 346.208c3.49 0 6.242 2.768 6.242 6.129v45.344c0 3.427-2.819 6.129-6.242 6.129h-11.947l-10.47 10.282-10.47-10.282h-11.947c-3.49 0-6.241-2.768-6.241-6.129v-45.344c0-3.427 2.818-6.129 6.241-6.129h44.834z" fill="#707070"/><path opacity=".625" d="M410.825 346.406c3.288 0 5.973 2.636 5.973 5.865v45.344c0 3.23-2.685 5.866-5.973 5.866h-12.081l-10.336 10.15-10.336-10.15h-12.081c-3.288 0-5.973-2.636-5.973-5.866v-45.344c0-3.229 2.685-5.865 5.973-5.865h44.834z" fill="#606060"/><path opacity=".688" d="M410.823 346.604c3.154 0 5.705 2.504 5.705 5.602v45.343c0 3.098-2.551 5.602-5.705 5.602h-12.148l-10.269 10.084-10.269-10.084h-12.148c-3.154 0-5.704-2.504-5.704-5.602v-45.343c0-3.098 2.55-5.602 5.704-5.602h44.834z" fill="#505050"/><path opacity=".75" d="M410.821 346.801c3.02 0 5.436 2.373 5.436 5.339v45.343c0 2.966-2.416 5.339-5.436 5.339h-12.282l-10.135 9.952-10.134-9.952h-12.282c-3.021 0-5.437-2.373-5.437-5.339V352.14c0-2.966 2.416-5.339 5.437-5.339h44.833z" fill="#404040"/><path opacity=".813" d="M410.823 346.933c2.886 0 5.168 2.307 5.168 5.075v45.343c0 2.834-2.349 5.075-5.168 5.075h-12.416l-10.001 9.82-10-9.82H365.99c-2.886 0-5.168-2.306-5.168-5.075v-45.343c0-2.834 2.349-5.075 5.168-5.075h44.833z" fill="#303030"/><path opacity=".875" d="M410.825 347.131c2.685 0 4.9 2.175 4.9 4.811v45.344c0 2.636-2.215 4.811-4.9 4.811h-12.483l-9.934 9.754-9.933-9.754h-12.483c-2.685 0-4.9-2.175-4.9-4.811v-45.344c0-2.636 2.215-4.811 4.9-4.811h44.833z" fill="#202020"/><path opacity=".938" d="M410.823 347.328c2.55 0 4.631 2.043 4.631 4.548v45.344c0 2.504-2.081 4.547-4.631 4.547h-12.618l-9.799 9.623-9.799-9.623H365.99c-2.551 0-4.631-2.043-4.631-4.547v-45.344c0-2.505 2.08-4.548 4.631-4.548h44.833z" fill="#101010"/><path opacity=".1" d="M410.825 347.526h-44.833c-2.416 0-4.363 1.911-4.363 4.284v45.344c0 2.372 1.947 4.284 4.363 4.284h12.752l9.664 9.49 9.665-9.49h12.752c2.416 0 4.363-1.912 4.363-4.284V351.81c0-2.373-1.947-4.284-4.363-4.284z" fill="#000"/></g><path d="M411.623 346.34h-46.444c-2.483 0-4.497 1.977-4.497 4.416v46.925c0 2.439 2.014 4.416 4.497 4.416h13.222l10 9.82 10-9.82h13.222c2.484 0 4.497-1.977 4.497-4.416v-46.925c0-2.439-2.013-4.416-4.497-4.416z" fill="#fff"/><path d="M401.828 361.696l-13.154-3.889c-.202-.065-.403-.065-.537 0l-13.155 3.889a.992.992 0 00-.671.923v14.17c0 1.845.738 3.756 2.282 5.602 1.141 1.45 2.751 2.9 4.698 4.284 3.356 2.372 6.577 3.822 6.711 3.888.135.066.269.066.403.066s.269 0 .403-.066 3.423-1.516 6.711-3.888c1.947-1.384 3.558-2.834 4.699-4.284 1.476-1.912 2.281-3.757 2.281-5.602v-14.17a.992.992 0 00-.671-.923zm-14.765 16.74l-5.369-5.14 2.08-2.044 3.289 3.098 6.98-6.722 2.08 2.043-9.06 8.765z" fill="url(#paint114_linear)"/><path d="M495.113 409.873l8.792-10.545c.403-.527.335-1.252-.201-1.648-.537-.395-1.276-.329-1.678.198l-8.793 10.545-10.671 12.852 1.812 1.45 10.739-12.852z" fill="url(#paint115_linear)"/><path d="M459.408 409.873l-8.792-10.545c-.403-.527-.336-1.252.201-1.648.537-.395 1.275-.329 1.678.198l8.792 10.545 10.671 12.852-1.812 1.45-10.738-12.852z" fill="url(#paint116_linear)"/><path d="M459.949 435.906h-8.188c-.537 0-1.007-.461-1.007-.989v-1.449h10.202v1.449c0 .594-.47.989-1.007.989z" fill="url(#paint117_linear)"/><path d="M502.963 435.906h-8.188c-.537 0-1.007-.461-1.007-.989v-1.449h10.201v1.449c0 .594-.469.989-1.006.989z" fill="url(#paint118_linear)"/><path d="M506.323 433.534h-58.122c-1.745 0-3.155-1.385-3.155-3.098v-8.963c0-1.714 1.41-3.164 3.222-3.164h58.122c1.745 0 3.222 1.384 3.222 3.164v8.897a3.253 3.253 0 01-3.289 3.164z" fill="url(#paint119_linear)"/><path d="M452.901 425.955c0 .593-.537 1.12-1.141 1.12s-1.141-.527-1.141-1.12c0-.594.537-1.121 1.141-1.121s1.141.462 1.141 1.121zm5.637 0c0 .593-.537 1.12-1.141 1.12s-1.141-.527-1.141-1.12c0-.594.537-1.121 1.141-1.121s1.141.462 1.141 1.121zm5.704 0c0 .593-.537 1.12-1.141 1.12s-1.141-.527-1.141-1.12c0-.594.537-1.121 1.141-1.121s1.141.462 1.141 1.121zm5.637 0c0 .593-.537 1.12-1.141 1.12s-1.141-.527-1.141-1.12c0-.594.537-1.121 1.141-1.121.671 0 1.141.462 1.141 1.121zm5.704 0c0 .593-.537 1.12-1.141 1.12s-1.141-.527-1.141-1.12c0-.594.537-1.121 1.141-1.121s1.141.462 1.141 1.121zm5.637 0c0 .593-.537 1.12-1.141 1.12s-1.141-.527-1.141-1.12c0-.594.537-1.121 1.141-1.121.671 0 1.141.462 1.141 1.121zm5.704 0c0 .593-.537 1.12-1.141 1.12s-1.141-.527-1.141-1.12c0-.594.537-1.121 1.141-1.121s1.141.462 1.141 1.121zm5.709 0c0 .593-.537 1.12-1.141 1.12s-1.141-.527-1.141-1.12c0-.594.537-1.121 1.141-1.121s1.141.462 1.141 1.121z" fill="#fff"/><path d="M498.265 425.955c0 .593-.536 1.12-1.141 1.12-.604 0-1.14-.527-1.14-1.12 0-.594.536-1.121 1.14-1.121.605 0 1.141.462 1.141 1.121z" fill="url(#paint120_linear)"/><path d="M503.974 425.955c0 .593-.537 1.12-1.141 1.12s-1.141-.527-1.141-1.12c0-.594.537-1.121 1.141-1.121s1.141.462 1.141 1.121z" fill="url(#paint121_linear)"/></g><defs><linearGradient id="paint0_linear" x1="89.747" y1="228.899" x2="90.324" y2="319.9" gradientUnits="userSpaceOnUse"><stop stop-color="#EDF3FF"/><stop offset="1" stop-color="#BDD4FF"/></linearGradient><linearGradient id="paint1_linear" x1="89.561" y1="242.026" x2="89.561" y2="146.846" gradientUnits="userSpaceOnUse"><stop stop-color="#EDF3FF"/><stop offset="1" stop-color="#BDD4FF"/></linearGradient><linearGradient id="paint2_linear" x1="84.343" y1="249.755" x2="85.882" y2="238.396" gradientUnits="userSpaceOnUse"><stop offset=".001" stop-color="#BDD4FF"/><stop offset=".999" stop-color="#EDF3FF"/></linearGradient><linearGradient id="paint3_linear" x1="82.723" y1="249.535" x2="84.261" y2="238.177" gradientUnits="userSpaceOnUse"><stop offset=".001" stop-color="#BDD4FF"/><stop offset=".999" stop-color="#EDF3FF"/></linearGradient><linearGradient id="paint4_linear" x1="81.103" y1="249.316" x2="82.641" y2="237.957" gradientUnits="userSpaceOnUse"><stop offset=".001" stop-color="#BDD4FF"/><stop offset=".999" stop-color="#EDF3FF"/></linearGradient><linearGradient id="paint5_linear" x1="79.482" y1="249.096" x2="81.02" y2="237.738" gradientUnits="userSpaceOnUse"><stop offset=".001" stop-color="#BDD4FF"/><stop offset=".999" stop-color="#EDF3FF"/></linearGradient><linearGradient id="paint6_linear" x1="77.862" y1="248.877" x2="79.4" y2="237.518" gradientUnits="userSpaceOnUse"><stop offset=".001" stop-color="#BDD4FF"/><stop offset=".999" stop-color="#EDF3FF"/></linearGradient><linearGradient id="paint7_linear" x1="76.241" y1="248.657" x2="77.78" y2="237.299" gradientUnits="userSpaceOnUse"><stop offset=".001" stop-color="#BDD4FF"/><stop offset=".999" stop-color="#EDF3FF"/></linearGradient><linearGradient id="paint8_linear" x1="74.621" y1="248.437" x2="76.159" y2="237.079" gradientUnits="userSpaceOnUse"><stop offset=".001" stop-color="#BDD4FF"/><stop offset=".999" stop-color="#EDF3FF"/></linearGradient><linearGradient id="paint9_linear" x1="73.001" y1="248.218" x2="74.539" y2="236.86" gradientUnits="userSpaceOnUse"><stop offset=".001" stop-color="#BDD4FF"/><stop offset=".999" stop-color="#EDF3FF"/></linearGradient><linearGradient id="paint10_linear" x1="71.38" y1="247.999" x2="72.919" y2="236.64" gradientUnits="userSpaceOnUse"><stop offset=".001" stop-color="#BDD4FF"/><stop offset=".999" stop-color="#EDF3FF"/></linearGradient><linearGradient id="paint11_linear" x1="69.76" y1="247.779" x2="71.298" y2="236.421" gradientUnits="userSpaceOnUse"><stop offset=".001" stop-color="#BDD4FF"/><stop offset=".999" stop-color="#EDF3FF"/></linearGradient><linearGradient id="paint12_linear" x1="68.14" y1="247.56" x2="69.678" y2="236.202" gradientUnits="userSpaceOnUse"><stop offset=".001" stop-color="#BDD4FF"/><stop offset=".999" stop-color="#EDF3FF"/></linearGradient><linearGradient id="paint13_linear" x1="66.519" y1="247.34" x2="68.058" y2="235.982" gradientUnits="userSpaceOnUse"><stop offset=".001" stop-color="#BDD4FF"/><stop offset=".999" stop-color="#EDF3FF"/></linearGradient><linearGradient id="paint14_linear" x1="254.805" y1="110.351" x2="254.216" y2="122.65" gradientUnits="userSpaceOnUse"><stop offset=".001" stop-color="#BDD4FF"/><stop offset=".999" stop-color="#EDF3FF"/></linearGradient><linearGradient id="paint15_linear" x1="255.698" y1="-6.692" x2="254.402" y2="54.871" gradientUnits="userSpaceOnUse"><stop stop-color="#fff"/><stop offset="1" stop-color="#BDD4FF"/></linearGradient><linearGradient id="paint16_linear" x1="253.604" y1="85.651" x2="254.774" y2="70.154" gradientUnits="userSpaceOnUse"><stop offset=".001" stop-color="#77A7FF"/><stop offset=".999" stop-color="#BDD4FF"/></linearGradient><linearGradient id="paint17_linear" x1="255.93" y1="68.535" x2="254.76" y2="110.645" gradientUnits="userSpaceOnUse"><stop stop-color="#F8F8FE"/><stop offset="1" stop-color="#BDD4FF"/></linearGradient><linearGradient id="paint121_linear" x1="502.139" y1="426.818" x2="503.521" y2="425.058" gradientUnits="userSpaceOnUse"><stop stop-color="#4687FF"/><stop offset=".999" stop-color="#77A7FF"/></linearGradient><linearGradient id="paint120_linear" x1="496.46" y1="426.818" x2="497.842" y2="425.058" gradientUnits="userSpaceOnUse"><stop stop-color="#4687FF"/><stop offset=".999" stop-color="#77A7FF"/></linearGradient><linearGradient id="paint20_linear" x1="412.636" y1="137.297" x2="436.147" y2="205.876" gradientUnits="userSpaceOnUse"><stop stop-color="#F8F8FE"/><stop offset="1" stop-color="#BDD4FF"/></linearGradient><linearGradient id="paint21_linear" x1="424.512" y1="138.451" x2="428.202" y2="296.694" gradientUnits="userSpaceOnUse"><stop stop-color="#EDF3FF"/><stop offset="1" stop-color="#BDD4FF"/></linearGradient><linearGradient id="paint22_linear" x1="456.888" y1="240.574" x2="478.7" y2="269.529" gradientUnits="userSpaceOnUse"><stop stop-color="#EDF3FF"/><stop offset="1" stop-color="#BDD4FF"/></linearGradient><linearGradient id="paint23_linear" x1="491.358" y1="214.608" x2="513.17" y2="243.563" gradientUnits="userSpaceOnUse"><stop stop-color="#EDF3FF"/><stop offset="1" stop-color="#BDD4FF"/></linearGradient><linearGradient id="paint24_linear" x1="477.884" y1="224.759" x2="499.696" y2="253.714" gradientUnits="userSpaceOnUse"><stop stop-color="#EDF3FF"/><stop offset="1" stop-color="#BDD4FF"/></linearGradient><linearGradient id="paint25_linear" x1="436.866" y1="255.656" x2="458.678" y2="284.611" gradientUnits="userSpaceOnUse"><stop stop-color="#EDF3FF"/><stop offset="1" stop-color="#BDD4FF"/></linearGradient><linearGradient id="paint26_linear" x1="444.347" y1="250.02" x2="466.159" y2="278.976" gradientUnits="userSpaceOnUse"><stop stop-color="#EDF3FF"/><stop offset="1" stop-color="#BDD4FF"/></linearGradient><linearGradient id="paint27_linear" x1="474.214" y1="227.521" x2="496.027" y2="256.476" gradientUnits="userSpaceOnUse"><stop stop-color="#EDF3FF"/><stop offset="1" stop-color="#BDD4FF"/></linearGradient><linearGradient id="paint28_linear" x1="460.738" y1="237.672" x2="482.55" y2="266.627" gradientUnits="userSpaceOnUse"><stop stop-color="#EDF3FF"/><stop offset="1" stop-color="#BDD4FF"/></linearGradient><linearGradient id="paint29_linear" x1="424.325" y1="265.104" x2="446.137" y2="294.059" gradientUnits="userSpaceOnUse"><stop stop-color="#EDF3FF"/><stop offset="1" stop-color="#BDD4FF"/></linearGradient><linearGradient id="paint30_linear" x1="430.999" y1="260.076" x2="452.811" y2="289.031" gradientUnits="userSpaceOnUse"><stop stop-color="#EDF3FF"/><stop offset="1" stop-color="#BDD4FF"/></linearGradient><linearGradient id="paint31_linear" x1="441.01" y1="252.534" x2="462.822" y2="281.489" gradientUnits="userSpaceOnUse"><stop stop-color="#EDF3FF"/><stop offset="1" stop-color="#BDD4FF"/></linearGradient><linearGradient id="paint32_linear" x1="457.401" y1="240.185" x2="479.213" y2="269.141" gradientUnits="userSpaceOnUse"><stop stop-color="#EDF3FF"/><stop offset="1" stop-color="#BDD4FF"/></linearGradient><linearGradient id="paint33_linear" x1="422.029" y1="245.252" x2="423.567" y2="232.199" gradientUnits="userSpaceOnUse"><stop stop-color="#F8F8FE"/><stop offset="1" stop-color="#BDD4FF"/></linearGradient><linearGradient id="paint34_linear" x1="370.287" y1="362.188" x2="343.033" y2="469.822" gradientUnits="userSpaceOnUse"><stop offset=".001" stop-color="#BDD4FF"/><stop offset=".999" stop-color="#EDF3FF"/></linearGradient><linearGradient id="paint35_linear" x1="309.686" y1="365.403" x2="309.686" y2="456.614" gradientUnits="userSpaceOnUse"><stop offset=".001" stop-color="#BDD4FF"/><stop offset=".999" stop-color="#EDF3FF"/></linearGradient><linearGradient id="paint36_linear" x1="20.543" y1="388.944" x2="-11.874" y2="383.766" gradientUnits="userSpaceOnUse"><stop offset=".001" stop-color="#BDD4FF"/><stop offset=".999" stop-color="#EDF3FF"/></linearGradient><linearGradient id="paint37_linear" x1="330.12" y1="383.998" x2="322.575" y2="363.511" gradientUnits="userSpaceOnUse"><stop offset=".001" stop-color="#BDD4FF"/><stop offset=".999" stop-color="#EDF3FF"/></linearGradient><linearGradient id="paint38_linear" x1="92.035" y1="423.063" x2="93.128" y2="479.29" gradientUnits="userSpaceOnUse"><stop offset=".001" stop-color="#BDD4FF"/><stop offset=".999" stop-color="#EDF3FF"/></linearGradient><linearGradient id="paint39_linear" x1="59.853" y1="371.62" x2="35.044" y2="493.083" gradientUnits="userSpaceOnUse"><stop offset=".001" stop-color="#BDD4FF"/><stop offset=".999" stop-color="#EDF3FF"/></linearGradient><linearGradient id="paint40_linear" x1="294.382" y1="354.364" x2="294.536" y2="343.275" gradientUnits="userSpaceOnUse"><stop stop-color="#fff"/><stop offset=".2" stop-color="#BDD4FF"/><stop offset=".999" stop-color="#77A7FF"/></linearGradient><linearGradient id="paint41_linear" x1="278.43" y1="246.612" x2="296.597" y2="299.606" gradientUnits="userSpaceOnUse"><stop stop-color="#fff"/><stop offset=".2" stop-color="#BDD4FF"/><stop offset=".999" stop-color="#77A7FF"/></linearGradient><linearGradient id="paint42_linear" x1="231.933" y1="325.7" x2="351.278" y2="325.7" gradientUnits="userSpaceOnUse"><stop stop-color="#fff"/><stop offset=".2" stop-color="#BDD4FF"/><stop offset=".999" stop-color="#77A7FF"/></linearGradient><linearGradient id="paint43_linear" x1="286.635" y1="225.46" x2="289.395" y2="343.845" gradientUnits="userSpaceOnUse"><stop stop-color="#fff"/><stop offset=".2" stop-color="#BDD4FF"/><stop offset=".999" stop-color="#77A7FF"/></linearGradient><linearGradient id="paint44_linear" x1="289.626" y1="325.931" x2="288.969" y2="306.516" gradientUnits="userSpaceOnUse"><stop offset=".001" stop-color="#BDD4FF"/><stop offset=".999" stop-color="#EDF3FF"/></linearGradient><linearGradient id="paint45_linear" x1="287.678" y1="306.095" x2="288.598" y2="340.143" gradientUnits="userSpaceOnUse"><stop stop-color="#fff"/><stop offset=".2" stop-color="#BDD4FF"/><stop offset=".999" stop-color="#77A7FF"/></linearGradient><linearGradient id="paint46_linear" x1="256.838" y1="305.41" x2="256.141" y2="334.986" gradientUnits="userSpaceOnUse"><stop offset=".001" stop-color="#BDD4FF"/><stop offset=".999" stop-color="#EDF3FF"/></linearGradient><linearGradient id="paint47_linear" x1="299.803" y1="306.423" x2="299.107" y2="335.998" gradientUnits="userSpaceOnUse"><stop offset=".001" stop-color="#BDD4FF"/><stop offset=".999" stop-color="#EDF3FF"/></linearGradient><linearGradient id="paint48_linear" x1="283.003" y1="306.027" x2="282.306" y2="335.602" gradientUnits="userSpaceOnUse"><stop offset=".001" stop-color="#BDD4FF"/><stop offset=".999" stop-color="#EDF3FF"/></linearGradient><linearGradient id="paint49_linear" x1="257.619" y1="305.429" x2="256.922" y2="335.004" gradientUnits="userSpaceOnUse"><stop offset=".001" stop-color="#BDD4FF"/><stop offset=".999" stop-color="#EDF3FF"/></linearGradient><linearGradient id="paint50_linear" x1="300.584" y1="306.442" x2="299.887" y2="336.017" gradientUnits="userSpaceOnUse"><stop offset=".001" stop-color="#BDD4FF"/><stop offset=".999" stop-color="#EDF3FF"/></linearGradient><linearGradient id="paint51_linear" x1="312.874" y1="306.731" x2="312.177" y2="336.307" gradientUnits="userSpaceOnUse"><stop offset=".001" stop-color="#BDD4FF"/><stop offset=".999" stop-color="#EDF3FF"/></linearGradient><linearGradient id="paint52_linear" x1="283.784" y1="306.046" x2="283.087" y2="335.621" gradientUnits="userSpaceOnUse"><stop offset=".001" stop-color="#BDD4FF"/><stop offset=".999" stop-color="#EDF3FF"/></linearGradient><linearGradient id="paint53_linear" x1="245.496" y1="305.143" x2="244.799" y2="334.719" gradientUnits="userSpaceOnUse"><stop offset=".001" stop-color="#BDD4FF"/><stop offset=".999" stop-color="#EDF3FF"/></linearGradient><linearGradient id="paint54_linear" x1="282.722" y1="306.021" x2="282.025" y2="335.596" gradientUnits="userSpaceOnUse"><stop offset=".001" stop-color="#BDD4FF"/><stop offset=".999" stop-color="#EDF3FF"/></linearGradient><linearGradient id="paint55_linear" x1="319.293" y1="306.883" x2="318.596" y2="336.458" gradientUnits="userSpaceOnUse"><stop offset=".001" stop-color="#BDD4FF"/><stop offset=".999" stop-color="#EDF3FF"/></linearGradient><linearGradient id="paint56_linear" x1="295.017" y1="306.311" x2="294.32" y2="335.886" gradientUnits="userSpaceOnUse"><stop offset=".001" stop-color="#BDD4FF"/><stop offset=".999" stop-color="#EDF3FF"/></linearGradient><linearGradient id="paint57_linear" x1="265.93" y1="305.625" x2="265.233" y2="335.2" gradientUnits="userSpaceOnUse"><stop offset=".001" stop-color="#BDD4FF"/><stop offset=".999" stop-color="#EDF3FF"/></linearGradient><linearGradient id="paint58_linear" x1="246.277" y1="305.162" x2="245.58" y2="334.737" gradientUnits="userSpaceOnUse"><stop offset=".001" stop-color="#BDD4FF"/><stop offset=".999" stop-color="#EDF3FF"/></linearGradient><linearGradient id="paint59_linear" x1="246.017" y1="305.155" x2="245.32" y2="334.73" gradientUnits="userSpaceOnUse"><stop offset=".001" stop-color="#BDD4FF"/><stop offset=".999" stop-color="#EDF3FF"/></linearGradient><linearGradient id="paint60_linear" x1="283.243" y1="306.032" x2="282.545" y2="335.608" gradientUnits="userSpaceOnUse"><stop offset=".001" stop-color="#BDD4FF"/><stop offset=".999" stop-color="#EDF3FF"/></linearGradient><linearGradient id="paint61_linear" x1="295.537" y1="306.322" x2="294.84" y2="335.897" gradientUnits="userSpaceOnUse"><stop offset=".001" stop-color="#BDD4FF"/><stop offset=".999" stop-color="#EDF3FF"/></linearGradient><linearGradient id="paint62_linear" x1="266.451" y1="305.637" x2="265.754" y2="335.212" gradientUnits="userSpaceOnUse"><stop offset=".001" stop-color="#BDD4FF"/><stop offset=".999" stop-color="#EDF3FF"/></linearGradient><linearGradient id="paint63_linear" x1="245.626" y1="305.147" x2="244.929" y2="334.722" gradientUnits="userSpaceOnUse"><stop offset=".001" stop-color="#BDD4FF"/><stop offset=".999" stop-color="#EDF3FF"/></linearGradient><linearGradient id="paint64_linear" x1="266.06" y1="305.628" x2="265.363" y2="335.203" gradientUnits="userSpaceOnUse"><stop offset=".001" stop-color="#BDD4FF"/><stop offset=".999" stop-color="#EDF3FF"/></linearGradient><linearGradient id="paint65_linear" x1="282.505" y1="354.501" x2="282.663" y2="343.13" gradientUnits="userSpaceOnUse"><stop stop-color="#fff"/><stop offset=".2" stop-color="#BDD4FF"/><stop offset=".999" stop-color="#77A7FF"/></linearGradient><linearGradient id="paint66_linear" x1="288.418" y1="321.052" x2="292.948" y2="363.956" gradientUnits="userSpaceOnUse"><stop stop-color="#fff"/><stop offset=".2" stop-color="#BDD4FF"/><stop offset=".999" stop-color="#77A7FF"/></linearGradient><linearGradient id="paint67_linear" x1="178.055" y1="328.073" x2="177.135" y2="381.955" gradientUnits="userSpaceOnUse"><stop stop-color="#fff"/><stop offset=".2" stop-color="#BDD4FF"/><stop offset=".999" stop-color="#77A7FF"/></linearGradient><linearGradient id="paint68_linear" x1="153.47" y1="255.55" x2="195.029" y2="264.22" gradientUnits="userSpaceOnUse"><stop stop-color="#F6CFBE"/><stop offset="1" stop-color="#FFE8E1"/></linearGradient><linearGradient id="paint69_linear" x1="155.438" y1="259.4" x2="207.572" y2="230.667" gradientUnits="userSpaceOnUse"><stop stop-color="#233B67"/><stop offset=".325" stop-color="#39456E"/><stop offset=".732" stop-color="#4E4F75"/><stop offset=".998" stop-color="#565378"/></linearGradient><linearGradient id="paint70_linear" x1="198.181" y1="494.286" x2="199.463" y2="506.668" gradientUnits="userSpaceOnUse"><stop stop-color="#F6CFBE"/><stop offset="1" stop-color="#FFE8E1"/></linearGradient><linearGradient id="paint71_linear" x1="205.62" y1="522.091" x2="211.297" y2="506.325" gradientUnits="userSpaceOnUse"><stop stop-color="#233B67"/><stop offset=".325" stop-color="#39456E"/><stop offset=".732" stop-color="#4E4F75"/><stop offset=".998" stop-color="#565378"/></linearGradient><linearGradient id="paint72_linear" x1="233.213" y1="495.245" x2="234.489" y2="507.561" gradientUnits="userSpaceOnUse"><stop stop-color="#F6CFBE"/><stop offset="1" stop-color="#FFE8E1"/></linearGradient><linearGradient id="paint73_linear" x1="241.537" y1="525.915" x2="247.87" y2="508.327" gradientUnits="userSpaceOnUse"><stop stop-color="#233B67"/><stop offset=".325" stop-color="#39456E"/><stop offset=".732" stop-color="#4E4F75"/><stop offset=".998" stop-color="#565378"/></linearGradient><linearGradient id="paint74_linear" x1="177.002" y1="436.354" x2="178.317" y2="498.421" gradientUnits="userSpaceOnUse"><stop stop-color="#233B67"/><stop offset=".325" stop-color="#39456E"/><stop offset=".732" stop-color="#4E4F75"/><stop offset=".998" stop-color="#565378"/></linearGradient><linearGradient id="paint75_linear" x1="163.924" y1="419.254" x2="223.327" y2="446.981" gradientUnits="userSpaceOnUse"><stop stop-color="#233B67"/><stop offset=".325" stop-color="#39456E"/><stop offset=".732" stop-color="#4E4F75"/><stop offset=".998" stop-color="#565378"/></linearGradient><linearGradient id="paint76_linear" x1="245.398" y1="345.365" x2="268.558" y2="342.203" gradientUnits="userSpaceOnUse"><stop stop-color="#F6CFBE"/><stop offset="1" stop-color="#FFE8E1"/></linearGradient><linearGradient id="paint77_linear" x1="159.695" y1="376.301" x2="166.327" y2="321.963" gradientUnits="userSpaceOnUse"><stop stop-color="#4687FF"/><stop offset=".999" stop-color="#77A7FF"/></linearGradient><linearGradient id="paint78_linear" x1="150.013" y1="475.625" x2="150.013" y2="435.258" gradientUnits="userSpaceOnUse"><stop stop-color="#BDD4FF"/><stop offset=".999" stop-color="#77A7FF"/></linearGradient><linearGradient id="paint79_linear" x1="150.793" y1="475.625" x2="150.793" y2="435.258" gradientUnits="userSpaceOnUse"><stop stop-color="#BDD4FF"/><stop offset=".999" stop-color="#77A7FF"/></linearGradient><linearGradient id="paint80_linear" x1="150.017" y1="491.256" x2="150.017" y2="515.826" gradientUnits="userSpaceOnUse"><stop stop-color="#BDD4FF"/><stop offset=".999" stop-color="#77A7FF"/></linearGradient><linearGradient id="paint81_linear" x1="149.704" y1="482.412" x2="150.107" y2="494.721" gradientUnits="userSpaceOnUse"><stop stop-color="#fff"/><stop offset=".2" stop-color="#BDD4FF"/><stop offset=".999" stop-color="#77A7FF"/></linearGradient><linearGradient id="paint82_linear" x1="112.909" y1="521.985" x2="112.909" y2="512.524" gradientUnits="userSpaceOnUse"><stop offset=".2" stop-color="#BDD4FF"/><stop offset=".999" stop-color="#77A7FF"/></linearGradient><linearGradient id="paint83_linear" x1="112.908" y1="510.387" x2="112.908" y2="516.842" gradientUnits="userSpaceOnUse"><stop stop-color="#BDD4FF"/><stop offset=".999" stop-color="#77A7FF"/></linearGradient><linearGradient id="paint84_linear" x1="187.487" y1="521.985" x2="187.487" y2="512.524" gradientUnits="userSpaceOnUse"><stop offset=".2" stop-color="#BDD4FF"/><stop offset=".999" stop-color="#77A7FF"/></linearGradient><linearGradient id="paint85_linear" x1="187.489" y1="510.387" x2="187.489" y2="516.842" gradientUnits="userSpaceOnUse"><stop stop-color="#BDD4FF"/><stop offset=".999" stop-color="#77A7FF"/></linearGradient><linearGradient id="paint86_linear" x1="150.02" y1="521.986" x2="150.02" y2="512.526" gradientUnits="userSpaceOnUse"><stop offset=".2" stop-color="#BDD4FF"/><stop offset=".999" stop-color="#77A7FF"/></linearGradient><linearGradient id="paint87_linear" x1="150.019" y1="510.388" x2="150.019" y2="516.843" gradientUnits="userSpaceOnUse"><stop stop-color="#BDD4FF"/><stop offset=".999" stop-color="#77A7FF"/></linearGradient><linearGradient id="paint88_linear" x1="117.291" y1="253.382" x2="101.72" y2="421.346" gradientUnits="userSpaceOnUse"><stop stop-color="#BDD4FF"/><stop offset=".999" stop-color="#77A7FF"/></linearGradient><linearGradient id="paint89_linear" x1="145.397" y1="340.51" x2="187.087" y2="454.903" gradientUnits="userSpaceOnUse"><stop stop-color="#BDD4FF"/><stop offset=".999" stop-color="#77A7FF"/></linearGradient><linearGradient id="paint90_linear" x1="183.342" y1="349.895" x2="196.055" y2="345.849" gradientUnits="userSpaceOnUse"><stop offset=".001" stop-color="#77A7FF" stop-opacity="0"/><stop offset="1" stop-color="#4687FF"/></linearGradient><linearGradient id="paint91_linear" x1="203.928" y1="378.273" x2="210.389" y2="325.338" gradientUnits="userSpaceOnUse"><stop stop-color="#4687FF"/><stop offset=".999" stop-color="#77A7FF"/></linearGradient><linearGradient id="paint92_linear" x1="328.625" y1="333.074" x2="324.345" y2="326.528" gradientUnits="userSpaceOnUse"><stop offset=".001" stop-color="#4687FF"/><stop offset=".999" stop-color="#77A7FF"/></linearGradient><linearGradient id="paint93_linear" x1="326.034" y1="327.422" x2="324.998" y2="325.347" gradientUnits="userSpaceOnUse"><stop offset=".001" stop-color="#BDD4FF"/><stop offset=".999" stop-color="#EDF3FF"/></linearGradient><linearGradient id="paint94_linear" x1="323.895" y1="322.414" x2="324.914" y2="327.879" gradientUnits="userSpaceOnUse"><stop offset=".001" stop-color="#BDD4FF"/><stop offset=".999" stop-color="#EDF3FF"/></linearGradient><linearGradient id="paint95_linear" x1="327.676" y1="325.133" x2="328.17" y2="329.094" gradientUnits="userSpaceOnUse"><stop stop-color="#233B67"/><stop offset=".325" stop-color="#39456E"/><stop offset=".732" stop-color="#4E4F75"/><stop offset=".998" stop-color="#565378"/></linearGradient><linearGradient id="paint96_linear" x1="328.569" y1="327.66" x2="327.881" y2="325.45" gradientUnits="userSpaceOnUse"><stop offset=".001" stop-color="#BDD4FF"/><stop offset=".999" stop-color="#EDF3FF"/></linearGradient><linearGradient id="paint97_linear" x1="335.574" y1="346.909" x2="331.465" y2="333.713" gradientUnits="userSpaceOnUse"><stop offset=".001" stop-color="#BDD4FF"/><stop offset=".999" stop-color="#EDF3FF"/></linearGradient><linearGradient id="paint98_linear" x1="327.478" y1="324.425" x2="327.235" y2="322.286" gradientUnits="userSpaceOnUse"><stop stop-color="#233B67"/><stop offset=".325" stop-color="#39456E"/><stop offset=".732" stop-color="#4E4F75"/><stop offset=".998" stop-color="#565378"/></linearGradient><linearGradient id="paint99_linear" x1="337.295" y1="336.874" x2="337.591" y2="329.464" gradientUnits="userSpaceOnUse"><stop offset=".001" stop-color="#4687FF"/><stop offset=".999" stop-color="#77A7FF"/></linearGradient><linearGradient id="paint100_linear" x1="338.509" y1="330.318" x2="338.693" y2="328.016" gradientUnits="userSpaceOnUse"><stop offset=".001" stop-color="#BDD4FF"/><stop offset=".999" stop-color="#EDF3FF"/></linearGradient><linearGradient id="paint101_linear" x1="337.561" y1="350.737" x2="338.664" y2="336.982" gradientUnits="userSpaceOnUse"><stop offset=".001" stop-color="#BDD4FF"/><stop offset=".999" stop-color="#EDF3FF"/></linearGradient><linearGradient id="paint102_linear" x1="339.163" y1="325.686" x2="339.163" y2="324.963" gradientUnits="userSpaceOnUse"><stop offset=".001" stop-color="#4687FF"/><stop offset=".999" stop-color="#77A7FF"/></linearGradient><linearGradient id="paint103_linear" x1="332.378" y1="347.671" x2="332.763" y2="328.231" gradientUnits="userSpaceOnUse"><stop stop-color="#F86E80"/><stop offset=".999" stop-color="#FFD4D8"/></linearGradient><linearGradient id="paint104_linear" x1="403.828" y1="459.727" x2="403.828" y2="514.866" gradientUnits="userSpaceOnUse"><stop stop-color="#BDD4FF"/><stop offset="1" stop-color="#EDF3FF"/></linearGradient><linearGradient id="paint105_linear" x1="465.06" y1="459.727" x2="465.06" y2="514.866" gradientUnits="userSpaceOnUse"><stop stop-color="#BDD4FF"/><stop offset="1" stop-color="#EDF3FF"/></linearGradient><linearGradient id="paint106_linear" x1="435.115" y1="459.728" x2="435.115" y2="514.866" gradientUnits="userSpaceOnUse"><stop stop-color="#BDD4FF"/><stop offset="1" stop-color="#EDF3FF"/></linearGradient><linearGradient id="paint107_linear" x1="437.148" y1="457.249" x2="441.348" y2="488.541" gradientUnits="userSpaceOnUse"><stop stop-color="#EDF3FF"/><stop offset="1" stop-color="#BDD4FF"/></linearGradient><linearGradient id="paint108_linear" x1="434.446" y1="406.657" x2="434.446" y2="434.554" gradientUnits="userSpaceOnUse"><stop stop-color="#EDF3FF"/><stop offset="1" stop-color="#BDD4FF"/></linearGradient><linearGradient id="paint109_linear" x1="388.249" y1="439.846" x2="388.633" y2="422.918" gradientUnits="userSpaceOnUse"><stop offset=".001" stop-color="#77A7FF"/><stop offset=".999" stop-color="#BDD4FF"/></linearGradient><linearGradient id="paint119_linear" x1="478.106" y1="455.125" x2="476.916" y2="411.207" gradientUnits="userSpaceOnUse"><stop offset=".001" stop-color="#77A7FF"/><stop offset=".999" stop-color="#BDD4FF"/></linearGradient><linearGradient id="paint111_linear" x1="283.476" y1="206.566" x2="287.66" y2="179.498" gradientUnits="userSpaceOnUse"><stop stop-color="#27AE56"/><stop offset=".999" stop-color="#9ED9B0"/></linearGradient><linearGradient id="paint112_linear" x1="420.679" y1="93.686" x2="424.863" y2="66.618" gradientUnits="userSpaceOnUse"><stop stop-color="#27AE56"/><stop offset=".999" stop-color="#9ED9B0"/></linearGradient><linearGradient id="paint113_linear" x1="471.202" y1="357.064" x2="475.386" y2="329.996" gradientUnits="userSpaceOnUse"><stop stop-color="#27AE56"/><stop offset=".999" stop-color="#9ED9B0"/></linearGradient><linearGradient id="paint114_linear" x1="385.156" y1="390.22" x2="389.34" y2="363.152" gradientUnits="userSpaceOnUse"><stop stop-color="#27AE56"/><stop offset=".999" stop-color="#9ED9B0"/></linearGradient><linearGradient id="paint115_linear" x1="479.413" y1="426.894" x2="492.855" y2="410.082" gradientUnits="userSpaceOnUse"><stop offset=".001" stop-color="#77A7FF"/><stop offset=".999" stop-color="#BDD4FF"/></linearGradient><linearGradient id="paint116_linear" x1="475.282" y1="426.867" x2="461.84" y2="410.054" gradientUnits="userSpaceOnUse"><stop offset=".001" stop-color="#77A7FF"/><stop offset=".999" stop-color="#BDD4FF"/></linearGradient><linearGradient id="paint117_linear" x1="456.716" y1="427.826" x2="455.202" y2="439.894" gradientUnits="userSpaceOnUse"><stop offset=".001" stop-color="#77A7FF"/><stop offset=".999" stop-color="#BDD4FF"/></linearGradient><linearGradient id="paint118_linear" x1="499.294" y1="430.983" x2="497.779" y2="443.052" gradientUnits="userSpaceOnUse"><stop offset=".001" stop-color="#77A7FF"/><stop offset=".999" stop-color="#BDD4FF"/></linearGradient><radialGradient id="paint110_radial" cx="0" cy="0" r="1" gradientUnits="userSpaceOnUse" gradientTransform="matrix(-120.332 0 0 -29.5791 434.452 524.603)"><stop offset=".435" stop-color="#305EB1" stop-opacity=".3"/><stop offset=".519" stop-color="#3461B2" stop-opacity=".255"/><stop offset=".598" stop-color="#3F6AB7" stop-opacity=".213"/><stop offset=".675" stop-color="#5279BE" stop-opacity=".172"/><stop offset=".751" stop-color="#6D8DC8" stop-opacity=".132"/><stop offset=".826" stop-color="#8FA8D5" stop-opacity=".092"/><stop offset=".9" stop-color="#B9C9E5" stop-opacity=".053"/><stop offset=".973" stop-color="#EBEFF7" stop-opacity=".014"/><stop offset="1" stop-color="#fff" stop-opacity="0"/></radialGradient><radialGradient id="paint19_radial" cx="0" cy="0" r="1" gradientUnits="userSpaceOnUse" gradientTransform="matrix(-146.508 0 0 -8.36339 182.989 522.858)"><stop stop-color="#305EB1" stop-opacity=".3"/><stop offset=".149" stop-color="#3461B2" stop-opacity=".255"/><stop offset=".289" stop-color="#3F6AB7" stop-opacity=".213"/><stop offset=".425" stop-color="#5279BE" stop-opacity=".172"/><stop offset=".56" stop-color="#6D8DC8" stop-opacity=".132"/><stop offset=".692" stop-color="#8FA8D5" stop-opacity=".092"/><stop offset=".824" stop-color="#B9C9E5" stop-opacity=".053"/><stop offset=".952" stop-color="#EBEFF7" stop-opacity=".014"/><stop offset="1" stop-color="#fff" stop-opacity="0"/></radialGradient><radialGradient id="paint18_radial" cx="0" cy="0" r="1" gradientUnits="userSpaceOnUse" gradientTransform="matrix(-183.183 0 0 -16.4981 209.327 494.624)"><stop stop-color="#305EB1" stop-opacity=".3"/><stop offset=".149" stop-color="#3461B2" stop-opacity=".255"/><stop offset=".289" stop-color="#3F6AB7" stop-opacity=".213"/><stop offset=".425" stop-color="#5279BE" stop-opacity=".172"/><stop offset=".56" stop-color="#6D8DC8" stop-opacity=".132"/><stop offset=".692" stop-color="#8FA8D5" stop-opacity=".092"/><stop offset=".824" stop-color="#B9C9E5" stop-opacity=".053"/><stop offset=".952" stop-color="#EBEFF7" stop-opacity=".014"/><stop offset="1" stop-color="#fff" stop-opacity="0"/></radialGradient><clipPath id="clip0"><path fill="#fff" d="M0 0h555v555H0z"/></clipPath></defs></svg>